<?xml version="1.0" encoding="utf-8"?>
<!-- Generator: Adobe Illustrator 19.2.1, SVG Export Plug-In . SVG Version: 6.00 Build 0)  -->
<svg version="1.1" id="Layer_1" xmlns="http://www.w3.org/2000/svg" xmlns:xlink="http://www.w3.org/1999/xlink" x="0px" y="0px"
	 viewBox="0 0 288 288" style="enable-background:new 0 0 288 288;" xml:space="preserve">
<style type="text/css">
	.st0{fill:#171330;}
	.st1{fill:#FFFFFF;}
	.st2{fill:#6058A4;}
	.st3{fill:#EBB51F;}
	.st4{fill:#E95178;}
	.st5{fill:#B3D236;}
	.st6{fill:#80D1E9;}
</style>
<g>
	<g>
		<polygon class="st0" points="144,27.1 245.3,85.5 245.3,202.5 144,260.9 42.7,202.5 42.7,85.5 		"/>
		<path class="st1" d="M144,262.3L41.5,203.2V84.8L144,25.7l102.5,59.2v118.3L144,262.3z M43.9,201.8L144,259.5l100.1-57.8V86.2
			L144,28.5L43.9,86.2V201.8z"/>
	</g>
	<g>
		<polygon class="st2" points="144,35.1 238.3,89.6 238.3,198.4 144,252.9 49.7,198.4 49.7,89.6 		"/>
		<path class="st1" d="M144,253.7l-0.4-0.2L49,198.8V89.2l0.4-0.2L144,34.3l95,54.8v109.7l-0.4,0.2L144,253.7z M50.4,198l93.6,54
			l93.6-54V90L144,36L50.4,90V198z"/>
	</g>
	<g>
		<polygon class="st0" points="144,43.7 230.9,93.8 230.9,194.2 144,244.3 57.1,194.2 57.1,93.8 		"/>
		<path class="st1" d="M144,245.2l-0.4-0.2l-87.2-50.4V93.4l0.4-0.2L144,42.8l87.6,50.6v101.2l-0.4,0.2L144,245.2z M57.8,193.7
			l86.2,49.7l86.2-49.7V94.3L144,44.5L57.8,94.3V193.7z"/>
	</g>
	<g>
		<g>
			<polygon class="st0" points="245.5,113.5 277.2,113.5 267.6,139.9 277.2,167.3 256.5,167.3 256.5,120.2 245.5,120.2 			"/>
			<path class="st1" d="M278.8,168.5h-23.5v-47h-11v-9.1h34.6l-10,27.6L278.8,168.5z M257.7,166.1h17.7l-9.2-26.2l9.2-25.2h-28.8
				v4.3h11V166.1z"/>
		</g>
	</g>
	<g>
		<g>
			<path class="st3" d="M142.4,78.9c0,0-6-10.3,1.7-20.5c0,0,7.1,7.3,2.1,20.5H142.4z"/>
		</g>
		<g>
			<polygon class="st3" points="140.7,74.5 140.1,74.8 139.7,81.2 138.2,81.2 138.2,72.9 140.1,71.9 140.5,71.7 			"/>
		</g>
		<g>
			<polygon class="st3" points="147.5,74.5 148,74.8 148.5,81.2 150,81.2 150,72.9 148,71.9 147.7,71.7 			"/>
		</g>
	</g>
	<g>
		<g>
			<path class="st4" d="M178.4,199.9c-3.8,0-6.8-3.1-6.8-6.8c0-3.8,3.1-6.8,6.8-6.8c3.8,0,6.8,3.1,6.8,6.8
				C185.2,196.8,182.1,199.9,178.4,199.9z M178.4,188.7c-2.4,0-4.4,2-4.4,4.4c0,2.4,2,4.4,4.4,4.4c2.4,0,4.4-2,4.4-4.4
				C182.8,190.7,180.8,188.7,178.4,188.7z"/>
		</g>
		<g>
			<path class="st5" d="M168.5,222.1c-3.8,0-6.8-3.1-6.8-6.8c0-3.8,3.1-6.8,6.8-6.8c3.8,0,6.8,3.1,6.8,6.8
				C175.3,219,172.3,222.1,168.5,222.1z M168.5,210.9c-2.4,0-4.4,2-4.4,4.4c0,2.4,2,4.4,4.4,4.4c2.4,0,4.4-2,4.4-4.4
				C172.9,212.8,170.9,210.9,168.5,210.9z"/>
		</g>
		<g>
			<polygon class="st5" points="173.9,215.2 172.7,213.1 222.5,185.9 222.5,174 224.9,174 224.9,187.3 			"/>
		</g>
		<g>
			<polygon class="st4" points="183.4,192.1 182.4,189.9 195.2,183.7 195.2,174 197.6,174 197.6,185.2 			"/>
		</g>
	</g>
	<g>
		<path class="st6" d="M140.8,216.5c-3.8,0-6.8-3.1-6.8-6.8c0-3.8,3.1-6.8,6.8-6.8c3.8,0,6.8,3.1,6.8,6.8
			C147.6,213.4,144.5,216.5,140.8,216.5z M140.8,205.3c-2.4,0-4.4,2-4.4,4.4c0,2.4,2,4.4,4.4,4.4c2.4,0,4.4-2,4.4-4.4
			C145.2,207.2,143.2,205.3,140.8,205.3z"/>
	</g>
	<g>
		<g>
			<path class="st4" d="M135.2,198.6c-3.8,0-6.8-3.1-6.8-6.8c0-3.8,3.1-6.8,6.8-6.8s6.8,3.1,6.8,6.8
				C142,195.6,138.9,198.6,135.2,198.6z M135.2,187.4c-2.4,0-4.4,2-4.4,4.4c0,2.4,2,4.4,4.4,4.4s4.4-2,4.4-4.4
				C139.6,189.4,137.6,187.4,135.2,187.4z"/>
		</g>
		<g>
			<path class="st6" d="M111.5,201.7c-3.8,0-6.8-3.1-6.8-6.8c0-3.8,3.1-6.8,6.8-6.8s6.8,3.1,6.8,6.8
				C118.3,198.6,115.3,201.7,111.5,201.7z M111.5,190.4c-2.4,0-4.4,2-4.4,4.4c0,2.4,2,4.4,4.4,4.4c2.4,0,4.4-2,4.4-4.4
				C115.9,192.4,114,190.4,111.5,190.4z"/>
		</g>
		<g>
			<path class="st5" d="M121.4,223.9c-3.8,0-6.8-3.1-6.8-6.8c0-3.8,3.1-6.8,6.8-6.8c3.8,0,6.8,3.1,6.8,6.8
				C128.2,220.8,125.2,223.9,121.4,223.9z M121.4,212.6c-2.4,0-4.4,2-4.4,4.4s2,4.4,4.4,4.4c2.4,0,4.4-2,4.4-4.4
				S123.8,212.6,121.4,212.6z"/>
		</g>
		<g>
			<polygon class="st4" points="130.5,191 119.7,185.6 119.7,175.7 122.1,175.7 122.1,184.1 131.6,188.9 			"/>
		</g>
		<g>
			<polygon class="st5" points="116.1,216.9 65,189.1 65,175.7 67.4,175.7 67.4,187.7 117.2,214.8 			"/>
		</g>
		<g>
			<polygon class="st6" points="106.5,193.9 92.3,187 92.3,175.7 94.7,175.7 94.7,185.5 107.6,191.7 			"/>
		</g>
	</g>
	<g>
		<polygon class="st6" points="144.6,207.7 143.4,205.7 163.1,194.2 163.1,174.5 165.5,174.5 165.5,195.5 		"/>
	</g>
	<g>
		<circle cx="84.9" cy="120.2" r="3.3"/>
	</g>
	<g>
		<circle cx="196.4" cy="120.2" r="3.3"/>
	</g>
	<g>
		<rect x="199.9" y="91.6" class="st1" width="14.2" height="27.8"/>
	</g>
	<g>
		<rect x="216.7" y="99.7" class="st1" width="11.3" height="20.5"/>
	</g>
	<g>
		<g>
			<rect x="90" y="89.3" class="st1" width="14.2" height="27.8"/>
			<path class="st1" d="M104.4,117.3H89.9V89.1h14.5V117.3z M90.2,116.9H104V89.4H90.2V116.9z"/>
		</g>
		<g>
			<rect x="93.6" y="86.6" class="st1" width="7.1" height="4.2"/>
			<path class="st1" d="M100.8,91h-7.4v-4.6h7.4V91z M93.8,90.6h6.7v-3.9h-6.7V90.6z"/>
		</g>
		<g>
			<rect x="95.4" y="84.5" class="st1" width="3.5" height="2.8"/>
			<path class="st1" d="M99.1,87.5h-3.9v-3.2h3.9V87.5z M95.5,87.2h3.2v-2.5h-3.2V87.2z"/>
		</g>
		<g>
			<line class="st1" x1="97.1" y1="85.9" x2="97.1" y2="79.4"/>
			<rect x="97" y="79.4" class="st1" width="0.2" height="6.6"/>
		</g>
		<g>
			<line class="st1" x1="113.8" y1="88.7" x2="113.8" y2="82.1"/>
			<rect x="113.7" y="82.1" class="st1" width="0.2" height="6.6"/>
		</g>
		<g>
			<circle class="st1" cx="97.1" cy="79.2" r="0.6"/>
		</g>
	</g>
	<g>
		<line class="st1" x1="161.6" y1="80.1" x2="161.6" y2="73.5"/>
		<rect x="161.5" y="73.5" class="st1" width="0.2" height="6.6"/>
	</g>
	<g>
		<rect x="106.7" y="92.4" class="st1" width="14.2" height="27.8"/>
	</g>
	<g>
		<rect x="108" y="87.5" class="st1" width="11.5" height="6.4"/>
	</g>
	<g>
		<rect x="110.6" y="86.6" class="st1" width="6.4" height="2.1"/>
	</g>
	<g>
		<polygon class="st1" points="129,80.2 129,82.5 126.2,82.5 126.2,84.8 123.3,84.8 123.3,112.7 134.7,112.7 134.7,87.4 134.7,85.9 
			134.7,84.8 134.7,82.5 134.7,80.2 		"/>
	</g>
	<g>
		<rect x="155.7" y="81.1" class="st1" width="11.8" height="26.8"/>
	</g>
	<g>
		<rect x="157.8" y="79.8" class="st1" width="7.6" height="2.3"/>
	</g>
	<g>
		<polygon class="st1" points="185.4,83 185.4,114.6 197.2,114.6 197.2,83 197.2,81.8 197.2,80 197.2,78.3 		"/>
	</g>
	<g>
		<polygon class="st1" points="177,80.2 171.1,85.4 171.1,112.2 182.9,112.2 182.9,85.4 		"/>
	</g>
	<g>
		<g>
			<rect x="75.7" y="93.9" class="st1" width="11.8" height="22.3"/>
		</g>
		<g>
			<polygon class="st1" points="86.2,93.1 85.5,93.1 85.5,92.4 85,92.4 85,91.6 84.5,91.6 84.5,90.8 83.8,90.8 83.8,90 83.1,90 
				83.1,89.2 80.1,89.2 80.1,90 79.4,90 79.4,90.8 78.7,90.8 78.7,91.6 78.2,91.6 78.2,92.4 77.7,92.4 77.7,93.1 76.9,93.1 
				76.9,93.9 86.2,93.9 			"/>
		</g>
	</g>
	<g>
		<g>
			<rect x="61.3" y="97.5" class="st1" width="11.6" height="22.3"/>
		</g>
	</g>
	<g>
		<rect x="202.2" y="90.7" class="st1" width="9.5" height="2.4"/>
	</g>
	<g>
		<line class="st1" x1="207" y1="91.9" x2="207" y2="85.4"/>
		<rect x="206.8" y="85.4" class="st1" width="0.2" height="6.5"/>
	</g>
	<g>
		<line class="st1" x1="222.4" y1="101.5" x2="222.4" y2="95"/>
		<rect x="222.2" y="95" class="st1" width="0.2" height="6.5"/>
	</g>
	<g>
		<g>
			<circle class="st2" cx="144.1" cy="98.3" r="8.7"/>
		</g>
		<g>
			<circle class="st2" cx="143.5" cy="113.1" r="14.7"/>
		</g>
		<g>
			<circle class="st2" cx="163.5" cy="113.1" r="14.7"/>
		</g>
		<g>
			<circle class="st2" cx="122" cy="113.1" r="14.7"/>
		</g>
		<g>
			<circle class="st2" cx="99.3" cy="122.4" r="14.7"/>
		</g>
		<g>
			<circle class="st2" cx="76.6" cy="123" r="14.7"/>
		</g>
		<g>
			<circle class="st2" cx="178.2" cy="120" r="14.7"/>
		</g>
		<g>
			<circle class="st2" cx="201" cy="123" r="14.7"/>
		</g>
		<g>
			<circle class="st2" cx="144.1" cy="88.3" r="5.5"/>
		</g>
	</g>
	<g>
		<g>
			<rect x="31.7" y="120.2" class="st0" width="224.6" height="54.2"/>
			<path class="st1" d="M257.5,175.7h-227V119h227V175.7z M32.9,173.3h222.2v-51.8H32.9V173.3z"/>
		</g>
		<g>
			<g>
				<polygon class="st0" points="42.7,113.5 11,113.5 20.6,139.9 11,167.3 31.7,167.3 31.7,120.2 42.7,120.2 				"/>
				<path class="st1" d="M32.9,168.5H9.4l10-28.5l-10-27.6h34.6v9.1h-11V168.5z M12.7,166.1h17.7v-47h11v-4.3H12.8l9.2,25.2
					L12.7,166.1z"/>
			</g>
		</g>
		<g>
			<g>
				<path class="st1" d="M64.2,134.4c0.2,0,0.4,0.1,0.5,0.2c0.1,0.1,0.2,0.3,0.2,0.5v24.4c0,0.2-0.1,0.4-0.2,0.5
					c-0.1,0.1-0.3,0.2-0.5,0.2h-5.1c-0.2,0-0.4-0.1-0.5-0.2c-0.1-0.1-0.2-0.3-0.2-0.5v-8.5c0-0.2-0.1-0.4-0.2-0.5
					c-0.1-0.1-0.3-0.2-0.5-0.2h-7.3c-0.2,0-0.4,0.1-0.5,0.2c-0.1,0.1-0.2,0.3-0.2,0.5v8.5c0,0.5-0.2,0.7-0.7,0.7h-5.1
					c-0.5,0-0.7-0.2-0.7-0.7v-24.4c0-0.5,0.2-0.7,0.7-0.7H49c0.5,0,0.7,0.2,0.7,0.7v8.3c0,0.5,0.2,0.7,0.7,0.7h7.3
					c0.2,0,0.4-0.1,0.5-0.2c0.1-0.1,0.2-0.3,0.2-0.5v-8.3c0-0.2,0.1-0.4,0.2-0.5c0.1-0.1,0.3-0.2,0.5-0.2H64.2z"/>
			</g>
			<g>
				<path class="st1" d="M88.1,134.4c0.6,0,1.2,0.1,1.7,0.4c0.5,0.2,1,0.5,1.4,0.9c0.4,0.4,0.7,0.8,0.9,1.4c0.2,0.5,0.4,1.1,0.4,1.7
					v20.8c0,0.2-0.1,0.4-0.2,0.5c-0.1,0.1-0.3,0.2-0.5,0.2h-5.1c-0.2,0-0.4-0.1-0.5-0.2c-0.1-0.1-0.2-0.3-0.2-0.5V153
					c0-0.2-0.1-0.4-0.2-0.5c-0.1-0.1-0.3-0.2-0.5-0.2h-7.3c-0.2,0-0.4,0.1-0.5,0.2c-0.1,0.1-0.2,0.3-0.2,0.5v6.6
					c0,0.5-0.2,0.7-0.7,0.7h-5.1c-0.5,0-0.7-0.2-0.7-0.7v-20.8c0-0.6,0.1-1.2,0.3-1.7c0.2-0.5,0.5-1,0.9-1.4
					c0.4-0.4,0.9-0.7,1.4-0.9c0.5-0.2,1.1-0.4,1.7-0.4H88.1z M85.9,146.7v-6.5h-8.7v6.5H85.9z"/>
			</g>
			<g>
				<path class="st1" d="M104.9,140.9c-0.1,0.1-0.2,0.3-0.2,0.5v12c0,0.2,0.1,0.4,0.2,0.5c0.1,0.1,0.3,0.2,0.5,0.2h11.9
					c0.2,0,0.4,0.1,0.5,0.2c0.1,0.1,0.2,0.3,0.2,0.5v4.9c0,0.2-0.1,0.4-0.2,0.5c-0.1,0.1-0.3,0.2-0.5,0.2h-7.7h-6.4h-0.7
					c-0.6,0-1.2-0.1-1.7-0.3c-0.5-0.2-1-0.5-1.4-0.9c-0.4-0.4-0.7-0.9-0.9-1.4c-0.2-0.5-0.3-1.1-0.3-1.7v-0.7v-2.7V144v-2.4v-2.8
					c0-0.6,0.1-1.2,0.3-1.7c0.2-0.5,0.5-1,0.9-1.4c0.4-0.4,0.9-0.7,1.4-0.9c0.5-0.2,1.1-0.4,1.7-0.4h0.7h14.1c0.2,0,0.4,0.1,0.5,0.2
					c0.1,0.1,0.2,0.3,0.2,0.5v4.9c0,0.2-0.1,0.4-0.2,0.5c-0.1,0.1-0.3,0.2-0.5,0.2h-11.9C105.2,140.7,105,140.8,104.9,140.9z"/>
			</g>
			<g>
				<path class="st1" d="M138.5,145.3c-0.1,0.1-0.1,0.2,0,0.3l8.6,14.1c0.1,0.2,0.1,0.3,0,0.4c-0.1,0.1-0.2,0.2-0.4,0.2h-6.1
					c-0.2,0-0.4-0.1-0.6-0.2c-0.2-0.1-0.3-0.3-0.4-0.4l-5.6-10.1c-0.1-0.1-0.1-0.1-0.2,0l-3.1,3.4c-0.1,0.1-0.2,0.3-0.3,0.5
					c-0.1,0.2-0.1,0.4-0.1,0.6v5.5c0,0.5-0.2,0.7-0.7,0.7h-5.1c-0.5,0-0.7-0.2-0.7-0.7v-24.4c0-0.5,0.2-0.7,0.7-0.7h5.1
					c0.5,0,0.7,0.2,0.7,0.7v11l9.5-11.1c0.1-0.1,0.3-0.3,0.5-0.4c0.2-0.1,0.4-0.1,0.6-0.1h6.1c0.2,0,0.3,0,0.4,0.1
					c0,0.1,0,0.2-0.1,0.4L138.5,145.3z"/>
			</g>
			<g>
				<path class="st1" d="M171,140.9c-0.1,0.1-0.2,0.3-0.2,0.5v12c0,0.2,0.1,0.4,0.2,0.5c0.1,0.1,0.3,0.2,0.5,0.2h11.9
					c0.2,0,0.4,0.1,0.5,0.2c0.1,0.1,0.2,0.3,0.2,0.5v4.9c0,0.2-0.1,0.4-0.2,0.5c-0.1,0.1-0.3,0.2-0.5,0.2h-7.7h-6.4h-0.7
					c-0.6,0-1.2-0.1-1.7-0.3c-0.5-0.2-1-0.5-1.4-0.9c-0.4-0.4-0.7-0.9-0.9-1.4c-0.2-0.5-0.3-1.1-0.3-1.7v-0.7v-2.7V144v-2.4v-2.8
					c0-0.6,0.1-1.2,0.3-1.7c0.2-0.5,0.5-1,0.9-1.4c0.4-0.4,0.9-0.7,1.4-0.9c0.5-0.2,1.1-0.4,1.7-0.4h0.7h14.1c0.2,0,0.4,0.1,0.5,0.2
					c0.1,0.1,0.2,0.3,0.2,0.5v4.9c0,0.2-0.1,0.4-0.2,0.5c-0.1,0.1-0.3,0.2-0.5,0.2h-11.9C171.3,140.7,171.2,140.8,171,140.9z"/>
			</g>
			<g>
				<path class="st1" d="M196.5,159.6c0,0.5-0.2,0.7-0.7,0.7h-5.1c-0.5,0-0.7-0.2-0.7-0.7v-24.4c0-0.5,0.2-0.7,0.7-0.7h5.1
					c0.5,0,0.7,0.2,0.7,0.7V159.6z"/>
			</g>
			<g>
				<path class="st1" d="M220.5,140c0,0.2-0.1,0.4-0.2,0.5c-0.1,0.1-0.3,0.2-0.5,0.2h-5.2c-0.2,0-0.4,0.1-0.5,0.2
					c-0.1,0.1-0.2,0.3-0.2,0.5v18.2c0,0.2-0.1,0.4-0.2,0.5c-0.1,0.1-0.3,0.2-0.5,0.2h-5.1c-0.2,0-0.4-0.1-0.5-0.2
					c-0.1-0.1-0.2-0.3-0.2-0.5v-18.2c0-0.2-0.1-0.4-0.2-0.5c-0.1-0.1-0.3-0.2-0.5-0.2h-5.2c-0.2,0-0.4-0.1-0.5-0.2
					c-0.1-0.1-0.2-0.3-0.2-0.5v-4.9c0-0.5,0.2-0.7,0.7-0.7h5.2h1.4h5.1h1.4h5.2c0.2,0,0.4,0.1,0.5,0.2c0.1,0.1,0.2,0.3,0.2,0.5V140z
					"/>
			</g>
			<g>
				<path class="st1" d="M244.6,134.6c0.1,0.1,0.2,0.3,0.2,0.5v13.2c0,0.6-0.1,1.2-0.4,1.7c-0.2,0.5-0.5,1-0.9,1.4
					c-0.4,0.4-0.8,0.7-1.4,0.9c-0.5,0.2-1.1,0.4-1.7,0.4h-2.8v6.9c0,0.2-0.1,0.4-0.2,0.5c-0.1,0.1-0.3,0.2-0.5,0.2h-5.1
					c-0.2,0-0.4-0.1-0.5-0.2c-0.1-0.1-0.2-0.3-0.2-0.5v-6.9h-2.8c-0.6,0-1.2-0.1-1.7-0.4c-0.5-0.2-1-0.5-1.4-0.9
					c-0.4-0.4-0.7-0.8-0.9-1.4c-0.2-0.5-0.3-1.1-0.3-1.7v-13.2c0-0.5,0.2-0.7,0.7-0.7h4.9c0.2,0,0.4,0.1,0.5,0.2
					c0.1,0.1,0.2,0.3,0.2,0.5v11c0,0.2,0.1,0.4,0.2,0.5c0.1,0.1,0.3,0.2,0.5,0.2h6.8c0.5,0,0.7-0.2,0.7-0.7v-11
					c0-0.5,0.2-0.7,0.7-0.7h4.9C244.3,134.4,244.4,134.5,244.6,134.6z"/>
			</g>
		</g>
	</g>
	<g>
		<rect x="76.9" y="93.1" class="st1" width="9.3" height="2"/>
	</g>
</g>
</svg>
