<?xml version="1.0" encoding="utf-8"?>
<!-- Generator: Adobe Illustrator 19.2.1, SVG Export Plug-In . SVG Version: 6.00 Build 0)  -->
<svg version="1.1" id="Layer_1" xmlns="http://www.w3.org/2000/svg" xmlns:xlink="http://www.w3.org/1999/xlink" x="0px" y="0px"
	 viewBox="0 0 720 252" style="enable-background:new 0 0 720 252;" xml:space="preserve">
<style type="text/css">
	.st0{fill:#FFFFFF;}
	.st1{fill:#6157A5;}
	.st2{fill:#969696;}
	.st3{fill:none;}
	.st4{fill:#333E49;}
	.st5{fill:#EA5279;}
	.st6{fill:#81D2EA;}
	.st7{fill:#B4D336;}
	.st8{fill:#6B66A3;}
	.st9{fill:#E0E0DE;}
	.st10{fill:#2C3741;stroke:#E0E0DE;stroke-miterlimit:10;}
	.st11{fill:#BDBEC0;}
	.st12{fill:#2C3741;}
</style>
<g>
	<g>
		<rect x="98.6" y="53.8" class="st0" width="118.7" height="181.5"/>
		<rect x="19.6" y="104.2" class="st0" width="79" height="131"/>
		<rect x="98.6" y="53.6" class="st1" width="92.2" height="14.6"/>
		<rect x="19.6" y="104.2" class="st1" width="79.1" height="14.6"/>
		<rect x="107.1" y="78.6" class="st1" width="75.2" height="35.1"/>
		<rect x="27.5" y="128.1" class="st1" width="63.3" height="35.1"/>
		<rect x="27.5" y="203.2" class="st1" width="27.5" height="27.5"/>
		<g>
			<rect x="148.9" y="156.7" class="st1" width="33.6" height="27.5"/>
		</g>
		<g>
			<rect x="107.1" y="156.7" class="st1" width="33.6" height="27.5"/>
		</g>
		<g>
			<rect x="107.1" y="121.7" class="st2" width="75.2" height="2"/>
			<rect x="107.1" y="125.7" class="st2" width="75.2" height="2"/>
			<rect x="107.1" y="129.7" class="st2" width="75.2" height="2"/>
			<rect x="107.1" y="133.8" class="st2" width="75.2" height="2"/>
			<rect x="107.1" y="137.8" class="st2" width="75.2" height="2"/>
			<rect x="107.1" y="141.8" class="st2" width="75.2" height="2"/>
			<rect x="107.1" y="145.9" class="st2" width="75.2" height="2"/>
			<rect x="107.1" y="149.9" class="st2" width="51" height="2"/>
		</g>
		<g>
			<rect x="27.5" y="169.1" class="st2" width="63.3" height="2"/>
			<rect x="27.5" y="173.1" class="st2" width="63.3" height="2"/>
			<rect x="27.5" y="177.1" class="st2" width="63.3" height="2"/>
			<rect x="27.5" y="181.1" class="st2" width="63.3" height="2"/>
			<rect x="27.5" y="185.1" class="st2" width="63.3" height="2"/>
			<rect x="27.5" y="189.2" class="st2" width="63.3" height="2"/>
			<rect x="27.5" y="193.2" class="st2" width="63.3" height="2"/>
			<rect x="27.5" y="197.2" class="st2" width="58.5" height="2"/>
		</g>
		<g>
			<rect x="107.1" y="188.8" class="st2" width="33.6" height="2"/>
			<rect x="107.1" y="192.8" class="st2" width="33.6" height="2"/>
			<rect x="107.1" y="196.8" class="st2" width="33.6" height="2"/>
			<rect x="107.1" y="200.8" class="st2" width="33.6" height="2"/>
			<rect x="107.1" y="204.8" class="st2" width="33.6" height="2"/>
			<rect x="107.1" y="208.9" class="st2" width="33.6" height="2"/>
			<rect x="107.1" y="212.9" class="st2" width="33.6" height="2"/>
			<rect x="107.1" y="216.9" class="st2" width="22.8" height="2"/>
		</g>
		<g>
			<rect x="59.1" y="203.2" class="st2" width="31.7" height="2"/>
			<rect x="59.1" y="207.2" class="st2" width="31.7" height="2"/>
			<rect x="59.1" y="211.2" class="st2" width="31.7" height="2"/>
			<rect x="59.1" y="215.2" class="st2" width="31.7" height="2"/>
			<rect x="59.1" y="219.3" class="st2" width="31.7" height="2"/>
			<rect x="59.1" y="223.3" class="st2" width="31.7" height="2"/>
			<rect x="59.1" y="227.3" class="st2" width="15.8" height="2"/>
		</g>
		<g>
			<rect x="148.9" y="188.8" class="st2" width="33.6" height="2"/>
			<rect x="148.9" y="192.8" class="st2" width="33.6" height="2"/>
			<rect x="148.9" y="196.8" class="st2" width="33.6" height="2"/>
			<rect x="148.9" y="200.8" class="st2" width="33.6" height="2"/>
			<rect x="148.9" y="204.8" class="st2" width="33.6" height="2"/>
			<rect x="148.9" y="208.9" class="st2" width="33.6" height="2"/>
			<rect x="148.9" y="212.9" class="st2" width="33.6" height="2"/>
			<rect x="148.9" y="216.9" class="st2" width="30.9" height="2"/>
		</g>
		<g>
			<g>
				<path class="st0" d="M144.8,103.4c-4,0-7.3-3.3-7.3-7.3s3.3-7.3,7.3-7.3s7.3,3.3,7.3,7.3C152.1,100.2,148.9,103.4,144.8,103.4z
					 M144.8,89.4c-3.7,0-6.7,3-6.7,6.7s3,6.7,6.7,6.7s6.7-3,6.7-6.7S148.4,89.4,144.8,89.4z"/>
			</g>
			<polygon class="st0" points="143.4,94.4 143.4,97.9 146.6,96.2 			"/>
		</g>
		<g>
			<g>
				<path class="st0" d="M59.1,152.9c-4,0-7.3-3.3-7.3-7.3s3.3-7.3,7.3-7.3s7.3,3.3,7.3,7.3C66.5,149.7,63.2,152.9,59.1,152.9z
					 M59.1,138.9c-3.7,0-6.7,3-6.7,6.7s3,6.7,6.7,6.7s6.7-3,6.7-6.7S62.8,138.9,59.1,138.9z"/>
			</g>
			<polygon class="st0" points="57.8,143.8 57.8,147.4 61,145.7 			"/>
		</g>
		<line class="st3" x1="98.6" y1="53.8" x2="98.6" y2="235.2"/>
	</g>
	<g>
		<g>
			<rect x="501.2" y="53.6" class="st4" width="120.9" height="181.5"/>
			<rect x="622.2" y="104.2" class="st4" width="79" height="131"/>
		</g>
		<line class="st3" x1="622.2" y1="53.6" x2="622.2" y2="235.2"/>
		<rect x="541.2" y="67.4" class="st2" width="32.5" height="3.7"/>
		<rect x="541.2" y="72.6" class="st2" width="60.6" height="3.7"/>
		<rect x="541.2" y="77.8" class="st2" width="53" height="3.7"/>
		<rect x="541.2" y="83.2" class="st5" width="30.3" height="3.7"/>
		<rect x="568.6" y="88.3" class="st6" width="23.9" height="3.7"/>
		<rect x="546.8" y="88.3" class="st6" width="20.2" height="3.7"/>
		<rect x="546.8" y="93.6" class="st7" width="28.1" height="3.7"/>
		<rect x="576.4" y="93.6" class="st8" width="6.8" height="3.7"/>
		<rect x="577.1" y="114.4" class="st8" width="14.5" height="3.7"/>
		<rect x="567.3" y="119.7" class="st8" width="11.4" height="3.7"/>
		<rect x="574.7" y="140.7" class="st8" width="13.4" height="3.7"/>
		<rect x="582.4" y="156.2" class="st8" width="17.1" height="3.7"/>
		<rect x="574.8" y="161.6" class="st8" width="10.3" height="3.7"/>
		<rect x="586.6" y="161.6" class="st5" width="14.6" height="3.7"/>
		<rect x="580.8" y="182.4" class="st8" width="8.1" height="3.7"/>
		<rect x="574.6" y="192.8" class="st8" width="7" height="3.7"/>
		<rect x="563.8" y="198.2" class="st8" width="11.1" height="3.7"/>
		<rect x="571.8" y="187.7" class="st6" width="16.3" height="3.7"/>
		<rect x="580.3" y="119.7" class="st5" width="11.1" height="3.7"/>
		<rect x="589.6" y="140.7" class="st5" width="9.4" height="3.7"/>
		<rect x="558.1" y="171.9" class="st7" width="10.5" height="3.7"/>
		<rect x="601.1" y="156.2" class="st5" width="3.9" height="3.7"/>
		<rect x="590.3" y="182.4" class="st5" width="2.4" height="3.7"/>
		<rect x="583.1" y="192.8" class="st5" width="3.8" height="3.7"/>
		<rect x="576.4" y="198.2" class="st5" width="11.2" height="3.7"/>
		<rect x="546.8" y="98.8" class="st5" width="20.9" height="3.7"/>
		<rect x="569.2" y="98.8" class="st6" width="17.3" height="3.7"/>
		<rect x="541.2" y="104.1" class="st0" width="3.2" height="3.7"/>
		<rect x="561.6" y="109.2" class="st0" width="2.9" height="3.7"/>
		<rect x="572.9" y="83.2" class="st0" width="2.4" height="3.7"/>
		<rect x="587.9" y="98.8" class="st0" width="2.4" height="3.7"/>
		<rect x="541.2" y="109.2" class="st5" width="18.9" height="3.7"/>
		<rect x="546.8" y="114.4" class="st6" width="28.8" height="3.7"/>
		<rect x="546.8" y="119.7" class="st7" width="19.1" height="3.7"/>
		<rect x="546.8" y="124.9" class="st6" width="15" height="3.7"/>
		<rect x="563.2" y="124.9" class="st6" width="22.6" height="3.7"/>
		<rect x="586.4" y="151.1" class="st6" width="19.7" height="3.7"/>
		<rect x="546.8" y="140.7" class="st6" width="26.4" height="3.7"/>
		<rect x="546.8" y="145.8" class="st6" width="29.3" height="3.7"/>
		<rect x="577.6" y="145.8" class="st6" width="22.9" height="3.7"/>
		<rect x="546.8" y="151.1" class="st7" width="38.1" height="3.7"/>
		<rect x="546.8" y="156.2" class="st6" width="34.1" height="3.7"/>
		<rect x="546.8" y="161.6" class="st6" width="26.5" height="3.7"/>
		<rect x="541.2" y="171.9" class="st5" width="15.4" height="3.7"/>
		<rect x="546.8" y="177.2" class="st6" width="19.1" height="3.7"/>
		<rect x="567.3" y="177.2" class="st6" width="17.6" height="3.7"/>
		<rect x="546.8" y="182.4" class="st7" width="32.5" height="3.7"/>
		<rect x="546.8" y="187.7" class="st6" width="23.5" height="3.7"/>
		<rect x="546.8" y="192.8" class="st6" width="26.3" height="3.7"/>
		<rect x="546.8" y="198.2" class="st6" width="15.5" height="3.7"/>
		<rect x="541.2" y="208.6" class="st7" width="8.9" height="3.7"/>
		<rect x="541.2" y="213.7" class="st5" width="11.6" height="3.7"/>
		<rect x="593.1" y="114.4" class="st5" width="3.8" height="3.7"/>
		<rect x="598.3" y="114.4" class="st0" width="1.2" height="3.7"/>
		<rect x="587.3" y="124.9" class="st0" width="2.9" height="3.7"/>
		<rect x="601.9" y="145.8" class="st0" width="4.5" height="3.7"/>
		<rect x="606.4" y="156.2" class="st0" width="3.1" height="3.7"/>
		<rect x="541.2" y="130.2" class="st0" width="3.2" height="3.7"/>
		<rect x="541.2" y="135.3" class="st7" width="15.2" height="3.7"/>
		<rect x="557.8" y="135.3" class="st0" width="3.4" height="3.7"/>
		<rect x="602.7" y="161.6" class="st0" width="1.2" height="3.7"/>
		<rect x="594.2" y="182.4" class="st0" width="3.1" height="3.7"/>
		<rect x="588.3" y="192.8" class="st0" width="1.2" height="3.7"/>
		<rect x="541.2" y="166.7" class="st0" width="3.2" height="3.7"/>
		<rect x="570.1" y="171.9" class="st0" width="3.2" height="3.7"/>
		<rect x="586.4" y="177.2" class="st0" width="1.2" height="3.7"/>
		<rect x="541.2" y="203.3" class="st0" width="3.2" height="3.7"/>
		<rect x="631.3" y="112.9" class="st2" width="22.5" height="3.7"/>
		<rect x="631.3" y="118.2" class="st2" width="25.7" height="3.7"/>
		<rect x="631.3" y="123.4" class="st2" width="40.3" height="3.7"/>
		<rect x="631.3" y="128.7" class="st7" width="25.7" height="3.7"/>
		<rect x="652.9" y="133.9" class="st6" width="13.9" height="3.7"/>
		<rect x="636.2" y="133.9" class="st5" width="15.4" height="3.7"/>
		<rect x="636.2" y="139.2" class="st6" width="14.6" height="3.7"/>
		<rect x="652.2" y="139.2" class="st8" width="5.8" height="3.7"/>
		<rect x="659.3" y="160.1" class="st8" width="10.1" height="3.7"/>
		<rect x="653.7" y="165.2" class="st8" width="9.2" height="3.7"/>
		<rect x="668.7" y="186.2" class="st8" width="12.8" height="3.7"/>
		<rect x="672.3" y="201.8" class="st8" width="10.4" height="3.7"/>
		<rect x="658.2" y="207.1" class="st8" width="7.2" height="3.7"/>
		<rect x="666.8" y="207.1" class="st5" width="10.5" height="3.7"/>
		<rect x="659.6" y="139.2" class="st5" width="11" height="3.7"/>
		<rect x="664.3" y="165.2" class="st5" width="8.7" height="3.7"/>
		<rect x="682.9" y="186.2" class="st5" width="5.4" height="3.7"/>
		<rect x="684.2" y="201.8" class="st5" width="3.4" height="3.7"/>
		<rect x="636.2" y="144.3" class="st6" width="19.5" height="3.7"/>
		<rect x="657.2" y="144.3" class="st6" width="16.6" height="3.7"/>
		<rect x="631.3" y="149.6" class="st0" width="3.7" height="3.7"/>
		<rect x="641.9" y="154.8" class="st0" width="3.4" height="3.7"/>
		<rect x="658.6" y="128.7" class="st0" width="3" height="3.7"/>
		<rect x="631.3" y="154.8" class="st7" width="9.1" height="3.7"/>
		<rect x="636.2" y="160.1" class="st6" width="21.7" height="3.7"/>
		<rect x="636.2" y="165.2" class="st7" width="16.2" height="3.7"/>
		<rect x="636.2" y="170.4" class="st6" width="20.1" height="3.7"/>
		<rect x="657.8" y="170.6" class="st6" width="21.2" height="3.7"/>
		<rect x="664.2" y="196.7" class="st6" width="24.2" height="3.7"/>
		<rect x="636.2" y="186.2" class="st6" width="31" height="3.7"/>
		<rect x="636.2" y="191.3" class="st6" width="20" height="3.7"/>
		<rect x="657.7" y="191.3" class="st6" width="28" height="3.7"/>
		<rect x="636.2" y="196.7" class="st7" width="26.6" height="3.7"/>
		<rect x="636.2" y="201.8" class="st6" width="34.7" height="3.7"/>
		<rect x="636.2" y="207.1" class="st7" width="20.6" height="3.7"/>
		<rect x="631.3" y="217.6" class="st5" width="10.7" height="3.7"/>
		<rect x="675.2" y="144.3" class="st0" width="3.5" height="3.7"/>
		<rect x="670.9" y="160.1" class="st5" width="6.7" height="3.7"/>
		<rect x="679.2" y="160.1" class="st0" width="3.5" height="3.7"/>
		<rect x="674.4" y="165.2" class="st0" width="3.7" height="3.7"/>
		<rect x="680.4" y="170.6" class="st0" width="1.5" height="3.7"/>
		<rect x="689.8" y="186.2" class="st0" width="1" height="3.7"/>
		<rect x="687.2" y="191.3" class="st0" width="3.7" height="3.7"/>
		<rect x="631.3" y="175.7" class="st0" width="2" height="3.7"/>
		<rect x="631.3" y="180.9" class="st7" width="17.5" height="3.7"/>
		<rect x="650.2" y="180.9" class="st0" width="2" height="3.7"/>
		<rect x="631.3" y="212.2" class="st0" width="2" height="3.7"/>
	</g>
	<g>
		<path class="st9" d="M532.2,242.2c13.9,0,17-14.9,17-14.9H169.4c0,0,3.1,14.9,17,14.9H532.2z"/>
		<path class="st10" d="M521.2,227.2H198.9c-4.4,0-8-3.6-8-8V17.8c0-4.4,3.6-8,8-8h322.2c4.4,0,8,3.6,8,8v201.4
			C529.2,223.7,525.6,227.2,521.2,227.2z"/>
		<rect x="203.8" y="22.1" class="st4" width="312.5" height="192.8"/>
		<path class="st11" d="M391.2,225.3L391.2,225.3c0,3.7-3,6.7-6.7,6.7h-50.4c-3.7,0-6.7-3-6.7-6.7H391.2z"/>
		<rect x="202.4" y="218.2" class="st12" width="318.4" height="8.5"/>
		<g>
			<rect x="386.1" y="38.2" class="st2" width="82.2" height="3.7"/>
			<rect x="386.1" y="43.6" class="st2" width="96.2" height="3.7"/>
			<rect x="386.1" y="48.8" class="st2" width="75.5" height="3.7"/>
			<rect x="386.1" y="53.9" class="st5" width="48.1" height="3.7"/>
			<rect x="440.7" y="59.1" class="st6" width="7.2" height="3.7"/>
			<rect x="395.1" y="59.1" class="st6" width="44.1" height="3.7"/>
			<rect x="395.1" y="64.4" class="st6" width="27.3" height="3.7"/>
			<rect x="423.9" y="64.4" class="st8" width="10.9" height="3.7"/>
			<rect x="437.2" y="85.3" class="st8" width="10.9" height="3.7"/>
			<rect x="426.9" y="90.6" class="st8" width="18.1" height="3.7"/>
			<rect x="457.1" y="111.4" class="st8" width="18.1" height="3.7"/>
			<rect x="461.6" y="127.2" class="st8" width="20.7" height="3.7"/>
			<rect x="438.7" y="132.3" class="st8" width="13.4" height="3.7"/>
			<rect x="453.6" y="132.3" class="st5" width="18.8" height="3.7"/>
			<rect x="448.2" y="153.2" class="st8" width="8.9" height="3.7"/>
			<rect x="430.6" y="163.7" class="st8" width="19.8" height="3.7"/>
			<rect x="421.2" y="168.9" class="st8" width="11.3" height="3.7"/>
			<rect x="433.9" y="158.4" class="st6" width="17.5" height="3.7"/>
			<rect x="436.2" y="64.4" class="st5" width="10.9" height="3.7"/>
			<rect x="446.6" y="90.6" class="st5" width="17.7" height="3.7"/>
			<rect x="476.7" y="111.4" class="st5" width="9" height="3.7"/>
			<rect x="407.7" y="142.8" class="st7" width="9" height="3.7"/>
			<rect x="483.7" y="127.2" class="st5" width="3.7" height="3.7"/>
			<rect x="458.6" y="153.2" class="st5" width="3.7" height="3.7"/>
			<rect x="451.9" y="163.7" class="st5" width="6.1" height="3.7"/>
			<rect x="433.9" y="168.9" class="st5" width="8.8" height="3.7"/>
			<rect x="395.1" y="69.6" class="st6" width="33.2" height="3.7"/>
			<rect x="429.9" y="69.6" class="st6" width="25.2" height="3.7"/>
			<rect x="386.1" y="74.8" class="st0" width="3.7" height="3.7"/>
			<rect x="404.6" y="80.1" class="st0" width="3.7" height="3.7"/>
			<rect x="435.7" y="53.9" class="st0" width="3.7" height="3.7"/>
			<rect x="386.1" y="80.1" class="st7" width="17" height="3.7"/>
			<rect x="395.1" y="85.3" class="st6" width="40.6" height="3.7"/>
			<rect x="395.1" y="90.6" class="st6" width="30.3" height="3.7"/>
			<rect x="395.1" y="95.7" class="st6" width="42.1" height="3.7"/>
			<rect x="438.7" y="95.7" class="st6" width="32.2" height="3.7"/>
			<rect x="457.1" y="121.9" class="st6" width="32.2" height="3.7"/>
			<rect x="395.1" y="111.4" class="st6" width="60.6" height="3.7"/>
			<rect x="395.1" y="116.7" class="st6" width="46.5" height="3.7"/>
			<rect x="443.1" y="116.7" class="st6" width="55.9" height="3.7"/>
			<rect x="395.1" y="121.9" class="st6" width="60.6" height="3.7"/>
			<rect x="395.1" y="127.2" class="st6" width="64.9" height="3.7"/>
			<rect x="395.1" y="132.3" class="st6" width="42.1" height="3.7"/>
			<rect x="386.1" y="142.8" class="st5" width="20.1" height="3.7"/>
			<rect x="395.1" y="148.1" class="st6" width="30.3" height="3.7"/>
			<rect x="426.9" y="148.1" class="st6" width="12.6" height="3.7"/>
			<rect x="395.1" y="153.2" class="st6" width="51.6" height="3.7"/>
			<rect x="395.1" y="158.4" class="st6" width="37.3" height="3.7"/>
			<rect x="395.1" y="163.7" class="st6" width="33.9" height="3.7"/>
			<rect x="395.1" y="168.9" class="st6" width="24.6" height="3.7"/>
			<rect x="386.1" y="179.4" class="st5" width="14.1" height="3.7"/>
			<rect x="386.1" y="184.7" class="st5" width="18.5" height="3.7"/>
			<rect x="456.6" y="69.6" class="st0" width="1.9" height="3.7"/>
			<rect x="449.6" y="85.3" class="st5" width="6.1" height="3.7"/>
			<rect x="457.1" y="85.3" class="st0" width="1.9" height="3.7"/>
			<rect x="465.6" y="90.6" class="st0" width="1.9" height="3.7"/>
			<rect x="472.4" y="95.7" class="st0" width="1.9" height="3.7"/>
			<rect x="487.2" y="111.4" class="st0" width="1.9" height="3.7"/>
			<rect x="500.6" y="116.7" class="st0" width="1.9" height="3.7"/>
			<rect x="490.9" y="121.9" class="st0" width="1.9" height="3.7"/>
			<rect x="488.9" y="127.2" class="st0" width="1.9" height="3.7"/>
			<rect x="386.1" y="101.1" class="st0" width="3.7" height="3.7"/>
			<rect x="386.1" y="106.2" class="st7" width="32.7" height="3.7"/>
			<rect x="420.4" y="106.2" class="st0" width="3.7" height="3.7"/>
			<rect x="473.9" y="132.3" class="st0" width="1.9" height="3.7"/>
			<rect x="463.9" y="153.2" class="st0" width="1.9" height="3.7"/>
			<rect x="459.4" y="163.7" class="st0" width="1.9" height="3.7"/>
			<rect x="444.2" y="168.9" class="st0" width="1.9" height="3.7"/>
			<rect x="452.9" y="158.4" class="st0" width="1.9" height="3.7"/>
			<rect x="386.1" y="137.6" class="st0" width="3.7" height="3.7"/>
			<rect x="418.2" y="142.8" class="st0" width="3.7" height="3.7"/>
			<rect x="440.9" y="148.1" class="st0" width="1.9" height="3.7"/>
			<rect x="386.1" y="174.2" class="st0" width="3.7" height="3.7"/>
			<g>
				<rect x="373.9" y="38.2" class="st2" width="3.7" height="3.7"/>
				<rect x="373.9" y="43.4" class="st2" width="3.7" height="3.7"/>
				<rect x="373.9" y="48.8" class="st2" width="3.7" height="3.7"/>
				<rect x="373.9" y="53.9" class="st2" width="3.7" height="3.7"/>
				<rect x="373.9" y="59.1" class="st2" width="3.7" height="3.7"/>
				<rect x="373.9" y="64.3" class="st2" width="3.7" height="3.7"/>
				<rect x="373.9" y="69.6" class="st2" width="3.7" height="3.7"/>
				<rect x="373.9" y="74.8" class="st2" width="3.7" height="3.7"/>
				<rect x="373.9" y="80.1" class="st2" width="3.7" height="3.7"/>
				<rect x="373.9" y="85.2" class="st2" width="3.7" height="3.7"/>
				<rect x="373.9" y="90.6" class="st2" width="3.7" height="3.7"/>
				<rect x="373.9" y="95.7" class="st2" width="3.7" height="3.7"/>
				<rect x="373.9" y="100.9" class="st2" width="3.7" height="3.7"/>
				<rect x="373.9" y="106.2" class="st2" width="3.7" height="3.7"/>
				<rect x="373.9" y="111.4" class="st2" width="3.7" height="3.7"/>
				<rect x="373.9" y="116.7" class="st2" width="3.7" height="3.7"/>
				<rect x="373.9" y="121.8" class="st2" width="3.7" height="3.7"/>
				<rect x="373.9" y="127.2" class="st2" width="3.7" height="3.7"/>
				<rect x="373.9" y="132.3" class="st2" width="3.7" height="3.7"/>
				<rect x="373.9" y="137.6" class="st2" width="3.7" height="3.7"/>
				<rect x="373.9" y="142.7" class="st2" width="3.7" height="3.7"/>
				<rect x="373.9" y="148.1" class="st2" width="3.7" height="3.7"/>
				<rect x="373.9" y="153.2" class="st2" width="3.7" height="3.7"/>
				<rect x="373.9" y="158.4" class="st2" width="3.7" height="3.7"/>
				<rect x="373.9" y="163.7" class="st2" width="3.7" height="3.7"/>
				<rect x="373.9" y="168.9" class="st2" width="3.7" height="3.7"/>
				<rect x="373.9" y="174.2" class="st2" width="3.7" height="3.7"/>
				<rect x="373.9" y="179.3" class="st2" width="3.7" height="3.7"/>
				<rect x="373.9" y="184.6" class="st2" width="3.7" height="3.7"/>
				<rect x="373.9" y="189.8" class="st2" width="3.7" height="3.7"/>
				<rect x="373.9" y="195.1" class="st2" width="3.7" height="3.7"/>
			</g>
		</g>
		<rect x="203.8" y="22.1" class="st0" width="156.3" height="192.8"/>
	</g>
	<rect x="203.8" y="22.1" class="st1" width="156.3" height="14.6"/>
	<rect x="217.4" y="139.1" class="st1" width="27.5" height="27.5"/>
	<rect x="251.2" y="139.1" class="st1" width="27.5" height="27.5"/>
	<rect x="285.1" y="139.1" class="st1" width="27.5" height="27.5"/>
	<rect x="318.9" y="139.1" class="st1" width="27.5" height="27.5"/>
	<g>
		<rect x="217.4" y="50.3" class="st1" width="27.5" height="4.7"/>
		<rect x="251.2" y="50.3" class="st1" width="27.5" height="4.7"/>
		<rect x="285.1" y="50.3" class="st1" width="27.5" height="4.7"/>
		<rect x="318.9" y="50.3" class="st1" width="27.5" height="4.7"/>
	</g>
	<rect x="217.4" y="64.4" class="st1" width="129.1" height="35.1"/>
	<g>
		<rect x="217.4" y="104.2" class="st2" width="61.3" height="2"/>
		<rect x="217.4" y="108.2" class="st2" width="61.3" height="2"/>
		<rect x="217.4" y="112.2" class="st2" width="61.3" height="2"/>
		<rect x="217.4" y="116.2" class="st2" width="61.3" height="2"/>
		<rect x="217.4" y="120.2" class="st2" width="61.3" height="2"/>
		<rect x="217.4" y="124.2" class="st2" width="61.3" height="2"/>
		<rect x="217.4" y="128.3" class="st2" width="61.3" height="2"/>
		<rect x="217.4" y="132.3" class="st2" width="41.6" height="2"/>
	</g>
	<g>
		<rect x="285.1" y="171.2" class="st2" width="61.3" height="2"/>
		<rect x="285.1" y="175.2" class="st2" width="61.3" height="2"/>
		<rect x="285.1" y="179.2" class="st2" width="61.3" height="2"/>
		<rect x="285.1" y="183.2" class="st2" width="61.3" height="2"/>
		<rect x="285.1" y="187.2" class="st2" width="61.3" height="2"/>
		<rect x="285.1" y="191.3" class="st2" width="61.3" height="2"/>
		<rect x="285.1" y="195.3" class="st2" width="61.3" height="2"/>
		<rect x="285.1" y="199.3" class="st2" width="41.6" height="2"/>
	</g>
	<g>
		<rect x="217.4" y="171.2" class="st2" width="61.3" height="2"/>
		<rect x="217.4" y="175.2" class="st2" width="61.3" height="2"/>
		<rect x="217.4" y="179.2" class="st2" width="61.3" height="2"/>
		<rect x="217.4" y="183.2" class="st2" width="61.3" height="2"/>
		<rect x="217.4" y="187.2" class="st2" width="61.3" height="2"/>
		<rect x="217.4" y="191.3" class="st2" width="61.3" height="2"/>
		<rect x="217.4" y="195.3" class="st2" width="61.3" height="2"/>
		<rect x="217.4" y="199.3" class="st2" width="41.6" height="2"/>
	</g>
	<g>
		<rect x="285.1" y="104.2" class="st2" width="61.3" height="2"/>
		<rect x="285.1" y="108.2" class="st2" width="61.3" height="2"/>
		<rect x="285.1" y="112.2" class="st2" width="61.3" height="2"/>
		<rect x="285.1" y="116.2" class="st2" width="61.3" height="2"/>
		<rect x="285.1" y="120.2" class="st2" width="61.3" height="2"/>
		<rect x="285.1" y="124.2" class="st2" width="61.3" height="2"/>
		<rect x="285.1" y="128.3" class="st2" width="61.3" height="2"/>
		<rect x="285.1" y="132.3" class="st2" width="55.5" height="2"/>
	</g>
	<g>
		<g>
			<path class="st0" d="M281.9,89.2c-4,0-7.3-3.3-7.3-7.3s3.3-7.3,7.3-7.3s7.3,3.3,7.3,7.3C289.2,85.9,285.9,89.2,281.9,89.2z
				 M281.9,75.2c-3.7,0-6.7,3-6.7,6.7c0,3.7,3,6.7,6.7,6.7s6.7-3,6.7-6.7C288.6,78.2,285.5,75.2,281.9,75.2z"/>
		</g>
		<polygon class="st0" points="280.5,80.2 280.5,83.7 283.8,82.1 		"/>
	</g>
</g>
</svg>
