<?xml version="1.0" encoding="utf-8"?>
<!-- Generator: Adobe Illustrator 19.2.1, SVG Export Plug-In . SVG Version: 6.00 Build 0)  -->
<svg version="1.1" id="Layer_1" xmlns="http://www.w3.org/2000/svg" xmlns:xlink="http://www.w3.org/1999/xlink" x="0px" y="0px"
	 viewBox="0 0 960 600" style="enable-background:new 0 0 960 600;" xml:space="preserve">
<style type="text/css">
	.st0{fill:#FFFFFF;}
	.st1{fill:#6157A5;}
	.st2{fill:#969696;}
	.st3{fill:none;}
	.st4{fill:#333E49;}
	.st5{fill:#EA5279;}
	.st6{fill:#81D2EA;}
	.st7{fill:#B4D336;}
	.st8{fill:#6B66A3;}
	.st9{fill:#E0E0DE;}
	.st10{fill:#2C3741;stroke:#E0E0DE;stroke-miterlimit:10;}
	.st11{fill:#BDBEC0;}
	.st12{fill:#2C3741;}
</style>
<g>
	<g>
		<rect x="218" y="228.3" class="st0" width="118.7" height="181.5"/>
		<rect x="139" y="278.8" class="st0" width="79" height="131"/>
		<rect x="218" y="228.2" class="st1" width="92.2" height="14.6"/>
		<rect x="139.1" y="278.8" class="st1" width="79" height="14.6"/>
		<rect x="226.5" y="253.2" class="st1" width="75.2" height="35.1"/>
		<rect x="146.9" y="302.6" class="st1" width="63.3" height="35.1"/>
		<rect x="146.9" y="377.8" class="st1" width="27.5" height="27.5"/>
		<g>
			<rect x="268.2" y="331.2" class="st1" width="33.6" height="27.5"/>
		</g>
		<g>
			<rect x="226.5" y="331.2" class="st1" width="33.6" height="27.5"/>
		</g>
		<g>
			<rect x="226.5" y="296.3" class="st2" width="75.2" height="2"/>
			<rect x="226.5" y="300.3" class="st2" width="75.2" height="2"/>
			<rect x="226.5" y="304.3" class="st2" width="75.2" height="2"/>
			<rect x="226.5" y="308.4" class="st2" width="75.2" height="2"/>
			<rect x="226.5" y="312.4" class="st2" width="75.2" height="2"/>
			<rect x="226.5" y="316.4" class="st2" width="75.2" height="2"/>
			<rect x="226.5" y="320.5" class="st2" width="75.2" height="2"/>
			<rect x="226.5" y="324.5" class="st2" width="51" height="2"/>
		</g>
		<g>
			<rect x="146.9" y="343.6" class="st2" width="63.3" height="2"/>
			<rect x="146.9" y="347.6" class="st2" width="63.3" height="2"/>
			<rect x="146.9" y="351.6" class="st2" width="63.3" height="2"/>
			<rect x="146.9" y="355.6" class="st2" width="63.3" height="2"/>
			<rect x="146.9" y="359.6" class="st2" width="63.3" height="2"/>
			<rect x="146.9" y="363.7" class="st2" width="63.3" height="2"/>
			<rect x="146.9" y="367.7" class="st2" width="63.3" height="2"/>
			<rect x="146.9" y="371.7" class="st2" width="58.5" height="2"/>
		</g>
		<g>
			<rect x="226.5" y="363.4" class="st2" width="33.6" height="2"/>
			<rect x="226.5" y="367.4" class="st2" width="33.6" height="2"/>
			<rect x="226.5" y="371.4" class="st2" width="33.6" height="2"/>
			<rect x="226.5" y="375.4" class="st2" width="33.6" height="2"/>
			<rect x="226.5" y="379.4" class="st2" width="33.6" height="2"/>
			<rect x="226.5" y="383.5" class="st2" width="33.6" height="2"/>
			<rect x="226.5" y="387.5" class="st2" width="33.6" height="2"/>
			<rect x="226.5" y="391.5" class="st2" width="22.8" height="2"/>
		</g>
		<g>
			<rect x="178.5" y="377.8" class="st2" width="31.7" height="2"/>
			<rect x="178.5" y="381.8" class="st2" width="31.7" height="2"/>
			<rect x="178.5" y="385.8" class="st2" width="31.7" height="2"/>
			<rect x="178.5" y="389.8" class="st2" width="31.7" height="2"/>
			<rect x="178.5" y="393.9" class="st2" width="31.7" height="2"/>
			<rect x="178.5" y="397.9" class="st2" width="31.7" height="2"/>
			<rect x="178.5" y="401.9" class="st2" width="15.8" height="2"/>
		</g>
		<g>
			<rect x="268.2" y="363.4" class="st2" width="33.6" height="2"/>
			<rect x="268.2" y="367.4" class="st2" width="33.6" height="2"/>
			<rect x="268.2" y="371.4" class="st2" width="33.6" height="2"/>
			<rect x="268.2" y="375.4" class="st2" width="33.6" height="2"/>
			<rect x="268.2" y="379.4" class="st2" width="33.6" height="2"/>
			<rect x="268.2" y="383.5" class="st2" width="33.6" height="2"/>
			<rect x="268.2" y="387.5" class="st2" width="33.6" height="2"/>
			<rect x="268.2" y="391.5" class="st2" width="30.9" height="2"/>
		</g>
		<g>
			<g>
				<path class="st0" d="M264.1,278c-4,0-7.3-3.3-7.3-7.3s3.3-7.3,7.3-7.3s7.3,3.3,7.3,7.3C271.5,274.8,268.2,278,264.1,278z
					 M264.1,264c-3.7,0-6.7,3-6.7,6.7s3,6.7,6.7,6.7s6.7-3,6.7-6.7S267.8,264,264.1,264z"/>
			</g>
			<polygon class="st0" points="262.8,269 262.8,272.5 266,270.8 			"/>
		</g>
		<g>
			<g>
				<path class="st0" d="M178.5,327.5c-4,0-7.3-3.3-7.3-7.3s3.3-7.3,7.3-7.3s7.3,3.3,7.3,7.3C185.9,324.2,182.6,327.5,178.5,327.5z
					 M178.5,313.5c-3.7,0-6.7,3-6.7,6.7s3,6.7,6.7,6.7s6.7-3,6.7-6.7S182.2,313.5,178.5,313.5z"/>
			</g>
			<polygon class="st0" points="177.2,318.4 177.2,322 180.4,320.2 			"/>
		</g>
		<line class="st3" x1="218" y1="228.3" x2="218" y2="409.8"/>
	</g>
	<g>
		<g>
			<rect x="620.6" y="228.2" class="st4" width="120.9" height="181.5"/>
			<rect x="741.5" y="278.7" class="st4" width="79" height="131"/>
		</g>
		<line class="st3" x1="741.5" y1="228.2" x2="741.5" y2="409.7"/>
		<rect x="660.5" y="242" class="st2" width="32.5" height="3.7"/>
		<rect x="660.5" y="247.2" class="st2" width="60.6" height="3.7"/>
		<rect x="660.5" y="252.4" class="st2" width="53" height="3.7"/>
		<rect x="660.5" y="257.7" class="st5" width="30.3" height="3.7"/>
		<rect x="687.9" y="262.9" class="st6" width="23.9" height="3.7"/>
		<rect x="666.1" y="262.9" class="st6" width="20.2" height="3.7"/>
		<rect x="666.1" y="268.1" class="st7" width="28.1" height="3.7"/>
		<rect x="695.8" y="268.1" class="st8" width="6.8" height="3.7"/>
		<rect x="696.4" y="289" class="st8" width="14.5" height="3.7"/>
		<rect x="686.7" y="294.3" class="st8" width="11.4" height="3.7"/>
		<rect x="694" y="315.2" class="st8" width="13.4" height="3.7"/>
		<rect x="701.8" y="330.8" class="st8" width="17.1" height="3.7"/>
		<rect x="694.1" y="336.1" class="st8" width="10.3" height="3.7"/>
		<rect x="705.9" y="336.1" class="st5" width="14.6" height="3.7"/>
		<rect x="700.2" y="357" class="st8" width="8.1" height="3.7"/>
		<rect x="693.9" y="367.4" class="st8" width="7" height="3.7"/>
		<rect x="683.1" y="372.7" class="st8" width="11.1" height="3.7"/>
		<rect x="691.1" y="362.2" class="st6" width="16.3" height="3.7"/>
		<rect x="699.7" y="294.3" class="st5" width="11.1" height="3.7"/>
		<rect x="708.9" y="315.2" class="st5" width="9.4" height="3.7"/>
		<rect x="677.4" y="346.5" class="st7" width="10.5" height="3.7"/>
		<rect x="720.4" y="330.8" class="st5" width="3.9" height="3.7"/>
		<rect x="709.7" y="357" class="st5" width="2.4" height="3.7"/>
		<rect x="702.4" y="367.4" class="st5" width="3.8" height="3.7"/>
		<rect x="695.8" y="372.7" class="st5" width="11.2" height="3.7"/>
		<rect x="666.1" y="273.4" class="st5" width="20.9" height="3.7"/>
		<rect x="688.5" y="273.4" class="st6" width="17.3" height="3.7"/>
		<rect x="660.5" y="278.6" class="st0" width="3.2" height="3.7"/>
		<rect x="680.9" y="283.8" class="st0" width="2.9" height="3.7"/>
		<rect x="692.3" y="257.7" class="st0" width="2.4" height="3.7"/>
		<rect x="707.3" y="273.4" class="st0" width="2.4" height="3.7"/>
		<rect x="660.5" y="283.8" class="st5" width="18.9" height="3.7"/>
		<rect x="666.1" y="289" class="st6" width="28.8" height="3.7"/>
		<rect x="666.1" y="294.3" class="st7" width="19.1" height="3.7"/>
		<rect x="666.1" y="299.5" class="st6" width="15" height="3.7"/>
		<rect x="682.6" y="299.5" class="st6" width="22.6" height="3.7"/>
		<rect x="705.8" y="325.6" class="st6" width="19.7" height="3.7"/>
		<rect x="666.1" y="315.2" class="st6" width="26.4" height="3.7"/>
		<rect x="666.1" y="320.4" class="st6" width="29.3" height="3.7"/>
		<rect x="696.9" y="320.4" class="st6" width="22.9" height="3.7"/>
		<rect x="666.1" y="325.6" class="st7" width="38.1" height="3.7"/>
		<rect x="666.1" y="330.8" class="st6" width="34.1" height="3.7"/>
		<rect x="666.1" y="336.1" class="st6" width="26.5" height="3.7"/>
		<rect x="660.5" y="346.5" class="st5" width="15.4" height="3.7"/>
		<rect x="666.1" y="351.7" class="st6" width="19.1" height="3.7"/>
		<rect x="686.7" y="351.7" class="st6" width="17.6" height="3.7"/>
		<rect x="666.1" y="357" class="st7" width="32.5" height="3.7"/>
		<rect x="666.1" y="362.2" class="st6" width="23.5" height="3.7"/>
		<rect x="666.1" y="367.4" class="st6" width="26.3" height="3.7"/>
		<rect x="666.1" y="372.7" class="st6" width="15.5" height="3.7"/>
		<rect x="660.5" y="383.1" class="st7" width="8.9" height="3.7"/>
		<rect x="660.5" y="388.3" class="st5" width="11.6" height="3.7"/>
		<rect x="712.4" y="289" class="st5" width="3.8" height="3.7"/>
		<rect x="717.7" y="289" class="st0" width="1.2" height="3.7"/>
		<rect x="706.7" y="299.5" class="st0" width="2.9" height="3.7"/>
		<rect x="721.3" y="320.4" class="st0" width="4.5" height="3.7"/>
		<rect x="725.8" y="330.8" class="st0" width="3.1" height="3.7"/>
		<rect x="660.5" y="304.7" class="st0" width="3.2" height="3.7"/>
		<rect x="660.5" y="309.9" class="st7" width="15.2" height="3.7"/>
		<rect x="677.2" y="309.9" class="st0" width="3.4" height="3.7"/>
		<rect x="722" y="336.1" class="st0" width="1.2" height="3.7"/>
		<rect x="713.6" y="357" class="st0" width="3.1" height="3.7"/>
		<rect x="707.7" y="367.4" class="st0" width="1.2" height="3.7"/>
		<rect x="660.5" y="341.3" class="st0" width="3.2" height="3.7"/>
		<rect x="689.4" y="346.5" class="st0" width="3.2" height="3.7"/>
		<rect x="705.8" y="351.7" class="st0" width="1.2" height="3.7"/>
		<rect x="660.5" y="377.9" class="st0" width="3.2" height="3.7"/>
		<rect x="750.7" y="287.5" class="st2" width="22.5" height="3.7"/>
		<rect x="750.7" y="292.8" class="st2" width="25.7" height="3.7"/>
		<rect x="750.7" y="298" class="st2" width="40.3" height="3.7"/>
		<rect x="750.7" y="303.2" class="st7" width="25.7" height="3.7"/>
		<rect x="772.3" y="308.5" class="st6" width="13.9" height="3.7"/>
		<rect x="755.5" y="308.5" class="st5" width="15.4" height="3.7"/>
		<rect x="755.5" y="313.7" class="st6" width="14.6" height="3.7"/>
		<rect x="771.6" y="313.7" class="st8" width="5.8" height="3.7"/>
		<rect x="778.7" y="334.6" class="st8" width="10.1" height="3.7"/>
		<rect x="773" y="339.8" class="st8" width="9.2" height="3.7"/>
		<rect x="788" y="360.7" class="st8" width="12.8" height="3.7"/>
		<rect x="791.7" y="376.4" class="st8" width="10.4" height="3.7"/>
		<rect x="777.5" y="381.6" class="st8" width="7.2" height="3.7"/>
		<rect x="786.2" y="381.6" class="st5" width="10.5" height="3.7"/>
		<rect x="778.9" y="313.7" class="st5" width="11" height="3.7"/>
		<rect x="783.7" y="339.8" class="st5" width="8.7" height="3.7"/>
		<rect x="802.3" y="360.7" class="st5" width="5.4" height="3.7"/>
		<rect x="803.5" y="376.4" class="st5" width="3.4" height="3.7"/>
		<rect x="755.5" y="318.9" class="st6" width="19.5" height="3.7"/>
		<rect x="776.5" y="318.9" class="st6" width="16.6" height="3.7"/>
		<rect x="750.7" y="324.1" class="st0" width="3.7" height="3.7"/>
		<rect x="761.3" y="329.4" class="st0" width="3.4" height="3.7"/>
		<rect x="777.9" y="303.2" class="st0" width="3" height="3.7"/>
		<rect x="750.7" y="329.4" class="st7" width="9.1" height="3.7"/>
		<rect x="755.5" y="334.6" class="st6" width="21.7" height="3.7"/>
		<rect x="755.5" y="339.8" class="st7" width="16.2" height="3.7"/>
		<rect x="755.5" y="345" class="st6" width="20.1" height="3.7"/>
		<rect x="777.1" y="345.1" class="st6" width="21.2" height="3.7"/>
		<rect x="783.6" y="371.2" class="st6" width="24.2" height="3.7"/>
		<rect x="755.5" y="360.7" class="st6" width="31" height="3.7"/>
		<rect x="755.5" y="365.9" class="st6" width="20" height="3.7"/>
		<rect x="777" y="365.9" class="st6" width="28" height="3.7"/>
		<rect x="755.5" y="371.2" class="st7" width="26.6" height="3.7"/>
		<rect x="755.5" y="376.4" class="st6" width="34.7" height="3.7"/>
		<rect x="755.5" y="381.6" class="st7" width="20.6" height="3.7"/>
		<rect x="750.7" y="392.1" class="st5" width="10.7" height="3.7"/>
		<rect x="794.6" y="318.9" class="st0" width="3.5" height="3.7"/>
		<rect x="790.3" y="334.6" class="st5" width="6.7" height="3.7"/>
		<rect x="798.5" y="334.6" class="st0" width="3.5" height="3.7"/>
		<rect x="793.8" y="339.8" class="st0" width="3.7" height="3.7"/>
		<rect x="799.8" y="345.1" class="st0" width="1.5" height="3.7"/>
		<rect x="809.2" y="360.7" class="st0" width="1" height="3.7"/>
		<rect x="806.5" y="365.9" class="st0" width="3.7" height="3.7"/>
		<rect x="750.7" y="350.3" class="st0" width="2" height="3.7"/>
		<rect x="750.7" y="355.5" class="st7" width="17.5" height="3.7"/>
		<rect x="769.6" y="355.5" class="st0" width="2" height="3.7"/>
		<rect x="750.7" y="386.8" class="st0" width="2" height="3.7"/>
	</g>
	<g>
		<path class="st9" d="M651.6,416.7c13.9,0,17-14.9,17-14.9H288.8c0,0,3.1,14.9,17,14.9H651.6z"/>
		<path class="st10" d="M640.5,401.8H318.3c-4.4,0-8-3.6-8-8V192.4c0-4.4,3.6-8,8-8h322.2c4.4,0,8,3.6,8,8v201.4
			C648.5,398.2,644.9,401.8,640.5,401.8z"/>
		<rect x="323.1" y="196.7" class="st4" width="312.5" height="192.8"/>
		<path class="st11" d="M510.6,399.9L510.6,399.9c0,3.7-3,6.7-6.7,6.7h-50.4c-3.7,0-6.7-3-6.7-6.7H510.6z"/>
		<rect x="321.7" y="392.8" class="st12" width="318.4" height="8.5"/>
		<g>
			<rect x="505.5" y="212.8" class="st2" width="82.2" height="3.7"/>
			<rect x="505.5" y="218.1" class="st2" width="96.2" height="3.7"/>
			<rect x="505.5" y="223.3" class="st2" width="75.5" height="3.7"/>
			<rect x="505.5" y="228.5" class="st5" width="48.1" height="3.7"/>
			<rect x="560.1" y="233.7" class="st6" width="7.2" height="3.7"/>
			<rect x="514.5" y="233.7" class="st6" width="44.1" height="3.7"/>
			<rect x="514.5" y="239" class="st6" width="27.3" height="3.7"/>
			<rect x="543.2" y="239" class="st8" width="10.9" height="3.7"/>
			<rect x="556.6" y="259.9" class="st8" width="10.9" height="3.7"/>
			<rect x="546.3" y="265.1" class="st8" width="18.1" height="3.7"/>
			<rect x="576.5" y="286" class="st8" width="18.1" height="3.7"/>
			<rect x="580.9" y="301.7" class="st8" width="20.7" height="3.7"/>
			<rect x="558.1" y="306.9" class="st8" width="13.4" height="3.7"/>
			<rect x="573" y="306.9" class="st5" width="18.8" height="3.7"/>
			<rect x="567.6" y="327.8" class="st8" width="8.9" height="3.7"/>
			<rect x="549.9" y="338.3" class="st8" width="19.8" height="3.7"/>
			<rect x="540.6" y="343.5" class="st8" width="11.3" height="3.7"/>
			<rect x="553.3" y="333" class="st6" width="17.5" height="3.7"/>
			<rect x="555.6" y="239" class="st5" width="10.9" height="3.7"/>
			<rect x="565.9" y="265.1" class="st5" width="17.7" height="3.7"/>
			<rect x="596.1" y="286" class="st5" width="9" height="3.7"/>
			<rect x="527.1" y="317.4" class="st7" width="9" height="3.7"/>
			<rect x="603.1" y="301.7" class="st5" width="3.7" height="3.7"/>
			<rect x="578" y="327.8" class="st5" width="3.7" height="3.7"/>
			<rect x="571.2" y="338.3" class="st5" width="6.1" height="3.7"/>
			<rect x="553.3" y="343.5" class="st5" width="8.8" height="3.7"/>
			<rect x="514.5" y="244.2" class="st6" width="33.2" height="3.7"/>
			<rect x="549.2" y="244.2" class="st6" width="25.2" height="3.7"/>
			<rect x="505.5" y="249.4" class="st0" width="3.7" height="3.7"/>
			<rect x="524" y="254.7" class="st0" width="3.7" height="3.7"/>
			<rect x="555.1" y="228.5" class="st0" width="3.7" height="3.7"/>
			<rect x="505.5" y="254.7" class="st7" width="17" height="3.7"/>
			<rect x="514.5" y="259.9" class="st6" width="40.6" height="3.7"/>
			<rect x="514.5" y="265.1" class="st6" width="30.3" height="3.7"/>
			<rect x="514.5" y="270.3" class="st6" width="42.1" height="3.7"/>
			<rect x="558.1" y="270.3" class="st6" width="32.2" height="3.7"/>
			<rect x="576.5" y="296.5" class="st6" width="32.2" height="3.7"/>
			<rect x="514.5" y="286" class="st6" width="60.6" height="3.7"/>
			<rect x="514.5" y="291.2" class="st6" width="46.5" height="3.7"/>
			<rect x="562.5" y="291.2" class="st6" width="55.9" height="3.7"/>
			<rect x="514.5" y="296.5" class="st6" width="60.6" height="3.7"/>
			<rect x="514.5" y="301.7" class="st6" width="64.9" height="3.7"/>
			<rect x="514.5" y="306.9" class="st6" width="42.1" height="3.7"/>
			<rect x="505.5" y="317.4" class="st5" width="20.1" height="3.7"/>
			<rect x="514.5" y="322.6" class="st6" width="30.3" height="3.7"/>
			<rect x="546.3" y="322.6" class="st6" width="12.6" height="3.7"/>
			<rect x="514.5" y="327.8" class="st6" width="51.6" height="3.7"/>
			<rect x="514.5" y="333" class="st6" width="37.3" height="3.7"/>
			<rect x="514.5" y="338.3" class="st6" width="33.9" height="3.7"/>
			<rect x="514.5" y="343.5" class="st6" width="24.6" height="3.7"/>
			<rect x="505.5" y="354" class="st5" width="14.1" height="3.7"/>
			<rect x="505.5" y="359.2" class="st5" width="18.5" height="3.7"/>
			<rect x="575.9" y="244.2" class="st0" width="1.9" height="3.7"/>
			<rect x="568.9" y="259.9" class="st5" width="6.1" height="3.7"/>
			<rect x="576.5" y="259.9" class="st0" width="1.9" height="3.7"/>
			<rect x="585" y="265.1" class="st0" width="1.9" height="3.7"/>
			<rect x="591.8" y="270.3" class="st0" width="1.9" height="3.7"/>
			<rect x="606.6" y="286" class="st0" width="1.9" height="3.7"/>
			<rect x="619.9" y="291.2" class="st0" width="1.9" height="3.7"/>
			<rect x="610.3" y="296.5" class="st0" width="1.9" height="3.7"/>
			<rect x="608.3" y="301.7" class="st0" width="1.9" height="3.7"/>
			<rect x="505.5" y="275.6" class="st0" width="3.7" height="3.7"/>
			<rect x="505.5" y="280.8" class="st7" width="32.7" height="3.7"/>
			<rect x="539.7" y="280.8" class="st0" width="3.7" height="3.7"/>
			<rect x="593.3" y="306.9" class="st0" width="1.9" height="3.7"/>
			<rect x="583.2" y="327.8" class="st0" width="1.9" height="3.7"/>
			<rect x="578.7" y="338.3" class="st0" width="1.9" height="3.7"/>
			<rect x="563.6" y="343.5" class="st0" width="1.9" height="3.7"/>
			<rect x="572.3" y="333" class="st0" width="1.9" height="3.7"/>
			<rect x="505.5" y="312.1" class="st0" width="3.7" height="3.7"/>
			<rect x="537.6" y="317.4" class="st0" width="3.7" height="3.7"/>
			<rect x="560.3" y="322.6" class="st0" width="1.9" height="3.7"/>
			<rect x="505.5" y="348.7" class="st0" width="3.7" height="3.7"/>
			<g>
				<rect x="493.3" y="212.8" class="st2" width="3.7" height="3.7"/>
				<rect x="493.3" y="218" class="st2" width="3.7" height="3.7"/>
				<rect x="493.3" y="223.3" class="st2" width="3.7" height="3.7"/>
				<rect x="493.3" y="228.5" class="st2" width="3.7" height="3.7"/>
				<rect x="493.3" y="233.7" class="st2" width="3.7" height="3.7"/>
				<rect x="493.3" y="238.9" class="st2" width="3.7" height="3.7"/>
				<rect x="493.3" y="244.2" class="st2" width="3.7" height="3.7"/>
				<rect x="493.3" y="249.4" class="st2" width="3.7" height="3.7"/>
				<rect x="493.3" y="254.6" class="st2" width="3.7" height="3.7"/>
				<rect x="493.3" y="259.8" class="st2" width="3.7" height="3.7"/>
				<rect x="493.3" y="265.1" class="st2" width="3.7" height="3.7"/>
				<rect x="493.3" y="270.3" class="st2" width="3.7" height="3.7"/>
				<rect x="493.3" y="275.5" class="st2" width="3.7" height="3.7"/>
				<rect x="493.3" y="280.8" class="st2" width="3.7" height="3.7"/>
				<rect x="493.3" y="286" class="st2" width="3.7" height="3.7"/>
				<rect x="493.3" y="291.2" class="st2" width="3.7" height="3.7"/>
				<rect x="493.3" y="296.4" class="st2" width="3.7" height="3.7"/>
				<rect x="493.3" y="301.7" class="st2" width="3.7" height="3.7"/>
				<rect x="493.3" y="306.9" class="st2" width="3.7" height="3.7"/>
				<rect x="493.3" y="312.1" class="st2" width="3.7" height="3.7"/>
				<rect x="493.3" y="317.3" class="st2" width="3.7" height="3.7"/>
				<rect x="493.3" y="322.6" class="st2" width="3.7" height="3.7"/>
				<rect x="493.3" y="327.8" class="st2" width="3.7" height="3.7"/>
				<rect x="493.3" y="333" class="st2" width="3.7" height="3.7"/>
				<rect x="493.3" y="338.2" class="st2" width="3.7" height="3.7"/>
				<rect x="493.3" y="343.5" class="st2" width="3.7" height="3.7"/>
				<rect x="493.3" y="348.7" class="st2" width="3.7" height="3.7"/>
				<rect x="493.3" y="353.9" class="st2" width="3.7" height="3.7"/>
				<rect x="493.3" y="359.1" class="st2" width="3.7" height="3.7"/>
				<rect x="493.3" y="364.4" class="st2" width="3.7" height="3.7"/>
				<rect x="493.3" y="369.6" class="st2" width="3.7" height="3.7"/>
			</g>
		</g>
		<rect x="323.1" y="196.7" class="st0" width="156.3" height="192.8"/>
	</g>
	<rect x="323.1" y="196.7" class="st1" width="156.3" height="14.6"/>
	<rect x="336.7" y="313.6" class="st1" width="27.5" height="27.5"/>
	<rect x="370.6" y="313.6" class="st1" width="27.5" height="27.5"/>
	<rect x="404.5" y="313.6" class="st1" width="27.5" height="27.5"/>
	<rect x="438.3" y="313.6" class="st1" width="27.5" height="27.5"/>
	<g>
		<rect x="336.7" y="224.9" class="st1" width="27.5" height="4.7"/>
		<rect x="370.6" y="224.9" class="st1" width="27.5" height="4.7"/>
		<rect x="404.5" y="224.9" class="st1" width="27.5" height="4.7"/>
		<rect x="438.3" y="224.9" class="st1" width="27.5" height="4.7"/>
	</g>
	<rect x="336.7" y="239" class="st1" width="129.1" height="35.1"/>
	<g>
		<rect x="336.7" y="278.7" class="st2" width="61.3" height="2"/>
		<rect x="336.7" y="282.7" class="st2" width="61.3" height="2"/>
		<rect x="336.7" y="286.8" class="st2" width="61.3" height="2"/>
		<rect x="336.7" y="290.8" class="st2" width="61.3" height="2"/>
		<rect x="336.7" y="294.8" class="st2" width="61.3" height="2"/>
		<rect x="336.7" y="298.8" class="st2" width="61.3" height="2"/>
		<rect x="336.7" y="302.9" class="st2" width="61.3" height="2"/>
		<rect x="336.7" y="306.9" class="st2" width="41.6" height="2"/>
	</g>
	<g>
		<rect x="404.5" y="345.8" class="st2" width="61.3" height="2"/>
		<rect x="404.5" y="349.8" class="st2" width="61.3" height="2"/>
		<rect x="404.5" y="353.8" class="st2" width="61.3" height="2"/>
		<rect x="404.5" y="357.8" class="st2" width="61.3" height="2"/>
		<rect x="404.5" y="361.8" class="st2" width="61.3" height="2"/>
		<rect x="404.5" y="365.9" class="st2" width="61.3" height="2"/>
		<rect x="404.5" y="369.9" class="st2" width="61.3" height="2"/>
		<rect x="404.5" y="373.9" class="st2" width="41.6" height="2"/>
	</g>
	<g>
		<rect x="336.7" y="345.8" class="st2" width="61.3" height="2"/>
		<rect x="336.7" y="349.8" class="st2" width="61.3" height="2"/>
		<rect x="336.7" y="353.8" class="st2" width="61.3" height="2"/>
		<rect x="336.7" y="357.8" class="st2" width="61.3" height="2"/>
		<rect x="336.7" y="361.8" class="st2" width="61.3" height="2"/>
		<rect x="336.7" y="365.9" class="st2" width="61.3" height="2"/>
		<rect x="336.7" y="369.9" class="st2" width="61.3" height="2"/>
		<rect x="336.7" y="373.9" class="st2" width="41.6" height="2"/>
	</g>
	<g>
		<rect x="404.5" y="278.7" class="st2" width="61.3" height="2"/>
		<rect x="404.5" y="282.7" class="st2" width="61.3" height="2"/>
		<rect x="404.5" y="286.8" class="st2" width="61.3" height="2"/>
		<rect x="404.5" y="290.8" class="st2" width="61.3" height="2"/>
		<rect x="404.5" y="294.8" class="st2" width="61.3" height="2"/>
		<rect x="404.5" y="298.8" class="st2" width="61.3" height="2"/>
		<rect x="404.5" y="302.9" class="st2" width="61.3" height="2"/>
		<rect x="404.5" y="306.9" class="st2" width="55.5" height="2"/>
	</g>
	<g>
		<g>
			<path class="st0" d="M401.3,263.8c-4,0-7.3-3.3-7.3-7.3c0-4,3.3-7.3,7.3-7.3s7.3,3.3,7.3,7.3
				C408.6,260.5,405.3,263.8,401.3,263.8z M401.3,249.8c-3.7,0-6.7,3-6.7,6.7c0,3.7,3,6.7,6.7,6.7s6.7-3,6.7-6.7
				C408,252.8,404.9,249.8,401.3,249.8z"/>
		</g>
		<polygon class="st0" points="399.9,254.8 399.9,258.3 403.1,256.6 		"/>
	</g>
</g>
</svg>
