<?xml version="1.0" encoding="utf-8"?>
<!-- Generator: Adobe Illustrator 19.2.1, SVG Export Plug-In . SVG Version: 6.00 Build 0)  -->
<svg version="1.1" id="Layer_1" xmlns="http://www.w3.org/2000/svg" xmlns:xlink="http://www.w3.org/1999/xlink" x="0px" y="0px"
	 viewBox="0 0 200 200" style="enable-background:new 0 0 200 200;" xml:space="preserve">
<style type="text/css">
	.st0{fill:#181431;}
	.st1{fill:#FFFFFF;}
	.st2{fill:#6159A5;}
	.st3{fill:#EAB520;}
	.st4{fill:#E95279;}
	.st5{fill:#B3D237;}
	.st6{fill:#81D1E8;}
	.st7{fill:#010101;}
	.st8{fill:none;}
</style>
<rect class="st0" width="200" height="200"/>
<g>
	<g>
		<polygon class="st0" points="99.9,12.7 163.6,49.4 163.6,122.9 99.9,159.6 36.3,122.9 36.3,49.4 		"/>
		<path class="st1" d="M99.9,160.5l-64.4-37.1V48.9l64.4-37.1L164.3,49v74.3L99.9,160.5z M37,122.5l62.9,36.3l62.9-36.3V49.8
			L99.9,13.6L37,49.8V122.5z"/>
	</g>
	<g>
		<polygon class="st2" points="99.9,17.7 159.2,51.9 159.2,120.3 99.9,154.6 40.7,120.3 40.7,51.9 		"/>
		<path class="st1" d="M99.9,155.1l-0.3-0.1l-59.4-34.4V51.7l0.3-0.1l59.4-34.4l59.7,34.4v68.9l-0.3,0.1L99.9,155.1z M41.1,120.1
			L99.9,154l58.8-33.9V52.2L99.9,18.3L41.1,52.2V120.1z"/>
	</g>
	<g>
		<polygon class="st0" points="99.9,23.1 154.5,54.6 154.5,117.7 99.9,149.2 45.3,117.7 45.3,54.6 		"/>
		<path class="st1" d="M99.9,149.7l-0.3-0.1l-54.8-31.7V54.3l0.3-0.1l54.8-31.7l55,31.8v63.6l-0.3,0.1L99.9,149.7z M45.7,117.4
			l54.2,31.2l54.2-31.2V54.9L99.9,23.6L45.7,54.9V117.4z"/>
	</g>
	<g>
		<g>
			<polygon class="st0" points="163.7,67 183.6,67 177.6,83.6 183.6,100.8 170.6,100.8 170.6,71.2 163.7,71.2 			"/>
			<path class="st1" d="M184.6,101.5h-14.8V72h-6.9v-5.7h21.7l-6.3,17.3L184.6,101.5z M171.4,100h11.1l-5.8-16.5l5.8-15.8h-18.1v2.7
				h6.9L171.4,100L171.4,100z"/>
		</g>
	</g>
	<g>
		<g>
			<path class="st3" d="M98.9,45.2c0,0-3.8-6.5,1.1-12.9c0,0,4.5,4.6,1.3,12.9H98.9z"/>
		</g>
		<g>
			<polygon class="st3" points="97.8,42.5 97.5,42.6 97.2,46.7 96.3,46.7 96.3,41.5 97.5,40.8 97.7,40.7 			"/>
		</g>
		<g>
			<polygon class="st3" points="102.1,42.5 102.4,42.6 102.7,46.7 103.7,46.7 103.7,41.5 102.4,40.8 102.2,40.7 			"/>
		</g>
	</g>
	<g>
		<g>
			<path class="st4" d="M121.5,121.3c-2.4,0-4.3-1.9-4.3-4.3c0-2.4,1.9-4.3,4.3-4.3c2.4,0,4.3,1.9,4.3,4.3
				C125.8,119.3,123.8,121.3,121.5,121.3z M121.5,114.2c-1.5,0-2.8,1.3-2.8,2.8s1.3,2.8,2.8,2.8c1.5,0,2.8-1.3,2.8-2.8
				C124.3,115.5,123,114.2,121.5,114.2z"/>
		</g>
		<g>
			<path class="st5" d="M115.3,135.2c-2.4,0-4.3-1.9-4.3-4.3c0-2.4,1.9-4.3,4.3-4.3c2.4,0,4.3,1.9,4.3,4.3S117.7,135.2,115.3,135.2z
				 M115.3,128.2c-1.5,0-2.8,1.3-2.8,2.8s1.3,2.8,2.8,2.8s2.8-1.3,2.8-2.8C118.1,129.4,116.8,128.2,115.3,128.2z"/>
		</g>
		<g>
			<polygon class="st5" points="118.7,130.9 117.9,129.6 149.2,112.5 149.2,105 150.7,105 150.7,113.3 			"/>
		</g>
		<g>
			<polygon class="st4" points="124.7,116.4 124,115 132.1,111.1 132.1,105 133.6,105 133.6,112 			"/>
		</g>
	</g>
	<g>
		<path class="st6" d="M97.9,131.7c-2.4,0-4.3-1.9-4.3-4.3c0-2.4,1.9-4.3,4.3-4.3c2.4,0,4.3,1.9,4.3,4.3
			C102.2,129.7,100.2,131.7,97.9,131.7z M97.9,124.7c-1.5,0-2.8,1.3-2.8,2.8c0,1.5,1.3,2.8,2.8,2.8s2.8-1.3,2.8-2.8
			C100.7,125.8,99.4,124.7,97.9,124.7z"/>
	</g>
	<g>
		<g>
			<path class="st4" d="M94.4,120.4c-2.4,0-4.3-1.9-4.3-4.3c0-2.4,1.9-4.3,4.3-4.3c2.3,0,4.3,1.9,4.3,4.3
				C98.6,118.6,96.7,120.4,94.4,120.4z M94.4,113.4c-1.5,0-2.8,1.3-2.8,2.8c0,1.5,1.3,2.8,2.8,2.8c1.5,0,2.8-1.3,2.8-2.8
				C97.1,114.7,95.9,113.4,94.4,113.4z"/>
		</g>
		<g>
			<path class="st6" d="M79.5,122.4c-2.4,0-4.3-1.9-4.3-4.3c0-2.4,1.9-4.3,4.3-4.3s4.3,1.9,4.3,4.3
				C83.8,120.4,81.9,122.4,79.5,122.4z M79.5,115.3c-1.5,0-2.8,1.3-2.8,2.8c0,1.5,1.3,2.8,2.8,2.8s2.8-1.3,2.8-2.8
				C82.2,116.5,81.1,115.3,79.5,115.3z"/>
		</g>
		<g>
			<path class="st5" d="M85.7,136.3c-2.4,0-4.3-1.9-4.3-4.3c0-2.4,1.9-4.3,4.3-4.3c2.4,0,4.3,1.9,4.3,4.3
				C90,134.4,88.1,136.3,85.7,136.3z M85.7,129.2c-1.5,0-2.8,1.3-2.8,2.8s1.3,2.8,2.8,2.8s2.8-1.3,2.8-2.8S87.2,129.2,85.7,129.2z"
				/>
		</g>
		<g>
			<polygon class="st4" points="91.4,115.7 84.6,112.3 84.6,106.1 86.1,106.1 86.1,111.3 92.1,114.3 			"/>
		</g>
		<g>
			<polygon class="st5" points="82.4,131.9 50.3,114.5 50.3,106.1 51.8,106.1 51.8,113.6 83.1,130.6 			"/>
		</g>
		<g>
			<polygon class="st6" points="76.3,117.5 67.4,113.2 67.4,106.1 68.9,106.1 68.9,112.2 77,116.1 			"/>
		</g>
	</g>
	<g>
		<polygon class="st6" points="100.3,126.2 99.5,124.9 111.9,117.7 111.9,105.3 113.4,105.3 113.4,118.5 		"/>
	</g>
	<g>
		<circle class="st7" cx="62.8" cy="71.2" r="2.1"/>
	</g>
	<g>
		<circle class="st7" cx="132.8" cy="71.2" r="2.1"/>
	</g>
	<g>
		<rect x="135" y="53.2" class="st1" width="8.9" height="17.5"/>
	</g>
	<g>
		<rect x="145.6" y="58.3" class="st1" width="7.1" height="12.9"/>
	</g>
	<g>
		<g>
			<rect x="66" y="51.8" class="st1" width="8.9" height="17.5"/>
			<path class="st1" d="M75,69.4h-9.1V51.6H75V69.4z M66.1,69.1h8.7V51.8h-8.7V69.1z"/>
		</g>
		<g>
			<rect x="68.2" y="50.1" class="st1" width="4.5" height="2.6"/>
			<path class="st1" d="M72.8,52.8h-4.7v-2.9h4.7V52.8z M68.4,52.6h4.2v-2.5h-4.2V52.6z"/>
		</g>
		<g>
			<rect x="69.4" y="48.7" class="st1" width="2.2" height="1.8"/>
			<path class="st1" d="M71.7,50.6h-2.5v-2h2.5V50.6z M69.4,50.4h2v-1.6h-2V50.4z"/>
		</g>
		<g>
			<line class="st8" x1="70.4" y1="49.6" x2="70.4" y2="45.5"/>
			<rect x="70.4" y="45.5" class="st1" width="0.1" height="4.1"/>
		</g>
		<g>
			<line class="st8" x1="80.9" y1="51.4" x2="80.9" y2="47.2"/>
			<rect x="80.9" y="47.2" class="st1" width="0.1" height="4.1"/>
		</g>
		<g>
			<circle class="st1" cx="70.4" cy="45.4" r="0.4"/>
		</g>
	</g>
	<g>
		<line class="st8" x1="111" y1="46" x2="111" y2="41.8"/>
		<rect x="110.9" y="41.8" class="st1" width="0.1" height="4.1"/>
	</g>
	<g>
		<rect x="76.5" y="53.7" class="st1" width="8.9" height="17.5"/>
	</g>
	<g>
		<rect x="77.3" y="50.6" class="st1" width="7.2" height="4"/>
	</g>
	<g>
		<rect x="78.9" y="50.1" class="st1" width="4" height="1.3"/>
	</g>
	<g>
		<polygon class="st1" points="90.5,46 90.5,47.5 88.7,47.5 88.7,48.9 86.9,48.9 86.9,66.5 94.1,66.5 94.1,50.6 94.1,49.6 
			94.1,48.9 94.1,47.5 94.1,46 		"/>
	</g>
	<g>
		<rect x="107.3" y="46.6" class="st1" width="7.4" height="16.8"/>
	</g>
	<g>
		<rect x="108.6" y="45.8" class="st1" width="4.8" height="1.4"/>
	</g>
	<g>
		<polygon class="st1" points="125.9,47.8 125.9,67.7 133.3,67.7 133.3,47.8 133.3,47 133.3,45.9 133.3,44.8 		"/>
	</g>
	<g>
		<polygon class="st1" points="120.6,46 116.9,49.3 116.9,66.2 124.4,66.2 124.4,49.3 		"/>
	</g>
	<g>
		<g>
			<rect x="57" y="54.7" class="st1" width="7.4" height="14"/>
		</g>
		<g>
			<polygon class="st1" points="63.6,54.1 63.1,54.1 63.1,53.7 62.8,53.7 62.8,53.2 62.5,53.2 62.5,52.7 62.1,52.7 62.1,52.2 
				61.6,52.2 61.6,51.7 59.8,51.7 59.8,52.2 59.3,52.2 59.3,52.7 58.9,52.7 58.9,53.2 58.6,53.2 58.6,53.7 58.2,53.7 58.2,54.1 
				57.7,54.1 57.7,54.7 63.6,54.7 			"/>
		</g>
	</g>
	<g>
		<g>
			<rect x="47.9" y="56.9" class="st1" width="7.3" height="14"/>
		</g>
	</g>
	<g>
		<rect x="136.5" y="52.6" class="st1" width="6" height="1.5"/>
	</g>
	<g>
		<line class="st8" x1="139.5" y1="53.4" x2="139.5" y2="49.3"/>
		<rect x="139.4" y="49.3" class="st1" width="0.1" height="4.1"/>
	</g>
	<g>
		<line class="st8" x1="149.2" y1="59.4" x2="149.2" y2="55.3"/>
		<rect x="149" y="55.3" class="st1" width="0.1" height="4.1"/>
	</g>
	<g>
		<g>
			<circle class="st2" cx="100" cy="57.4" r="5.5"/>
		</g>
		<g>
			<circle class="st2" cx="99.6" cy="66.7" r="9.2"/>
		</g>
		<g>
			<circle class="st2" cx="112.2" cy="66.7" r="9.2"/>
		</g>
		<g>
			<circle class="st2" cx="86.1" cy="66.7" r="9.2"/>
		</g>
		<g>
			<circle class="st2" cx="71.8" cy="72.6" r="9.2"/>
		</g>
		<g>
			<circle class="st2" cx="57.6" cy="72.9" r="9.2"/>
		</g>
		<g>
			<circle class="st2" cx="121.4" cy="71.1" r="9.2"/>
		</g>
		<g>
			<circle class="st2" cx="135.7" cy="72.9" r="9.2"/>
		</g>
		<g>
			<circle class="st2" cx="100" cy="51.1" r="3.5"/>
		</g>
	</g>
	<g>
		<g>
			<rect x="29.3" y="71.2" class="st0" width="141.1" height="34.1"/>
			<path class="st1" d="M171.2,106.1H28.6V70.4h142.6V106.1z M30.1,104.5h139.6V72H30.1V104.5z"/>
		</g>
		<g>
			<g>
				<polygon class="st0" points="36.3,67 16.3,67 22.4,83.6 16.3,100.8 29.3,100.8 29.3,71.2 36.3,71.2 				"/>
				<path class="st1" d="M30.1,101.5H15.3l6.3-17.9l-6.3-17.3h21.7V72h-6.9L30.1,101.5L30.1,101.5z M17.4,100h11.1V70.5h6.9v-2.7
					h-18l5.8,15.8L17.4,100z"/>
			</g>
		</g>
		<g>
			<g>
				<path class="st1" d="M49.8,80.1c0.1,0,0.3,0.1,0.3,0.1c0.1,0.1,0.1,0.2,0.1,0.3v15.3c0,0.1-0.1,0.3-0.1,0.3s-0.2,0.1-0.3,0.1
					h-3.2c-0.1,0-0.3-0.1-0.3-0.1c-0.1-0.1-0.1-0.2-0.1-0.3v-5.3c0-0.1-0.1-0.3-0.1-0.3c-0.1-0.1-0.2-0.1-0.3-0.1h-4.6
					c-0.1,0-0.3,0.1-0.3,0.1c-0.1,0.1-0.1,0.2-0.1,0.3v5.3c0,0.3-0.1,0.4-0.4,0.4H37c-0.3,0-0.4-0.1-0.4-0.4V80.5
					c0-0.3,0.1-0.4,0.4-0.4h3.2c0.3,0,0.4,0.1,0.4,0.4v5.2c0,0.3,0.1,0.4,0.4,0.4h4.6c0.1,0,0.3-0.1,0.3-0.1
					c0.1-0.1,0.1-0.2,0.1-0.3v-5.2c0-0.1,0.1-0.3,0.1-0.3s0.2-0.1,0.3-0.1H49.8z"/>
			</g>
			<g>
				<path class="st1" d="M64.8,80.1c0.4,0,0.8,0.1,1.1,0.3c0.3,0.1,0.6,0.3,0.9,0.6c0.3,0.3,0.4,0.5,0.6,0.9
					c0.1,0.3,0.3,0.7,0.3,1.1v13.1c0,0.1-0.1,0.3-0.1,0.3c-0.1,0.1-0.2,0.1-0.3,0.1h-3.2c-0.1,0-0.3-0.1-0.3-0.1
					c-0.1-0.1-0.1-0.2-0.1-0.3v-4.1c0-0.1-0.1-0.3-0.1-0.3c-0.1-0.1-0.2-0.1-0.3-0.1h-4.6c-0.1,0-0.3,0.1-0.3,0.1
					c-0.1,0.1-0.1,0.2-0.1,0.3v4.1c0,0.3-0.1,0.4-0.4,0.4h-3.2c-0.3,0-0.4-0.1-0.4-0.4V82.9c0-0.4,0.1-0.8,0.2-1.1
					c0.1-0.3,0.3-0.6,0.6-0.9c0.3-0.3,0.6-0.4,0.9-0.6c0.3-0.1,0.7-0.3,1.1-0.3L64.8,80.1L64.8,80.1z M63.4,87.8v-4.1h-5.5v4.1H63.4
					z"/>
			</g>
			<g>
				<path class="st1" d="M75.3,84.2c-0.1,0.1-0.1,0.2-0.1,0.3V92c0,0.1,0.1,0.3,0.1,0.3c0.1,0.1,0.2,0.1,0.3,0.1h7.5
					c0.1,0,0.3,0.1,0.3,0.1c0.1,0.1,0.1,0.2,0.1,0.3V96c0,0.1-0.1,0.3-0.1,0.3c-0.1,0.1-0.2,0.1-0.3,0.1h-4.8h-4h-0.4
					c-0.4,0-0.8-0.1-1.1-0.2c-0.3-0.1-0.6-0.3-0.9-0.6c-0.3-0.3-0.4-0.6-0.6-0.9c-0.1-0.3-0.2-0.7-0.2-1.1v-0.4v-1.7v-5.5v-1.5v-1.8
					c0-0.4,0.1-0.8,0.2-1.1c0.1-0.3,0.3-0.6,0.6-0.9c0.3-0.3,0.6-0.4,0.9-0.6c0.3-0.1,0.7-0.3,1.1-0.3h0.4h8.9
					c0.1,0,0.3,0.1,0.3,0.1c0.1,0.1,0.1,0.2,0.1,0.3v3.1c0,0.1-0.1,0.3-0.1,0.3c-0.1,0.1-0.2,0.1-0.3,0.1h-7.5
					C75.5,84.1,75.4,84.1,75.3,84.2z"/>
			</g>
			<g>
				<path class="st1" d="M96.5,87c-0.1,0.1-0.1,0.1,0,0.2l5.4,8.9c0.1,0.1,0.1,0.2,0,0.3c-0.1,0.1-0.1,0.1-0.3,0.1h-3.8
					c-0.1,0-0.3-0.1-0.4-0.1c-0.1-0.1-0.2-0.2-0.3-0.3l-3.5-6.3c-0.1-0.1-0.1-0.1-0.1,0l-1.9,2.1c-0.1,0.1-0.1,0.2-0.2,0.3
					s-0.1,0.3-0.1,0.4v3.5c0,0.3-0.1,0.4-0.4,0.4h-3.2c-0.3,0-0.4-0.1-0.4-0.4V80.6c0-0.3,0.1-0.4,0.4-0.4h3.2
					c0.3,0,0.4,0.1,0.4,0.4v6.9l6-7c0.1-0.1,0.2-0.2,0.3-0.3c0.1-0.1,0.3-0.1,0.4-0.1h3.8c0.1,0,0.2,0,0.3,0.1c0,0.1,0,0.1-0.1,0.3
					L96.5,87z"/>
			</g>
			<g>
				<path class="st1" d="M116.9,84.2c-0.1,0.1-0.1,0.2-0.1,0.3V92c0,0.1,0.1,0.3,0.1,0.3s0.2,0.1,0.3,0.1h7.5c0.1,0,0.3,0.1,0.3,0.1
					c0.1,0.1,0.1,0.2,0.1,0.3V96c0,0.1-0.1,0.3-0.1,0.3c-0.1,0.1-0.2,0.1-0.3,0.1h-4.8h-4h-0.4c-0.4,0-0.8-0.1-1.1-0.2
					c-0.3-0.1-0.6-0.3-0.9-0.6s-0.4-0.6-0.6-0.9c-0.1-0.3-0.2-0.7-0.2-1.1v-0.4v-1.7v-5.5v-1.5v-1.8c0-0.4,0.1-0.8,0.2-1.1
					c0.1-0.3,0.3-0.6,0.6-0.9c0.3-0.3,0.6-0.4,0.9-0.6c0.3-0.1,0.7-0.3,1.1-0.3h0.4h8.9c0.1,0,0.3,0.1,0.3,0.1
					c0.1,0.1,0.1,0.2,0.1,0.3v3.1c0,0.1-0.1,0.3-0.1,0.3c-0.1,0.1-0.2,0.1-0.3,0.1h-7.5C117.1,84.1,117,84.1,116.9,84.2z"/>
			</g>
			<g>
				<path class="st1" d="M132.9,95.9c0,0.3-0.1,0.4-0.4,0.4h-3.2c-0.3,0-0.4-0.1-0.4-0.4V80.6c0-0.3,0.1-0.4,0.4-0.4h3.2
					c0.3,0,0.4,0.1,0.4,0.4V95.9z"/>
			</g>
			<g>
				<path class="st1" d="M148,83.6c0,0.1-0.1,0.3-0.1,0.3s-0.2,0.1-0.3,0.1h-3.3c-0.1,0-0.3,0.1-0.3,0.1c-0.1,0.1-0.1,0.2-0.1,0.3
					v11.4c0,0.1-0.1,0.3-0.1,0.3s-0.2,0.1-0.3,0.1h-3.2c-0.1,0-0.3-0.1-0.3-0.1c-0.1-0.1-0.1-0.2-0.1-0.3V84.5
					c0-0.1-0.1-0.3-0.1-0.3s-0.2-0.1-0.3-0.1H136c-0.1,0-0.3-0.1-0.3-0.1c-0.1-0.1-0.1-0.2-0.1-0.3v-3.1c0-0.3,0.1-0.4,0.4-0.4h3.3
					h0.9h3.2h0.9h3.3c0.1,0,0.3,0.1,0.3,0.1c0.1,0.1,0.1,0.2,0.1,0.3V83.6z"/>
			</g>
			<g>
				<path class="st1" d="M163.1,80.2c0.1,0.1,0.1,0.2,0.1,0.3v8.3c0,0.4-0.1,0.8-0.3,1.1c-0.1,0.3-0.3,0.6-0.6,0.9
					c-0.3,0.3-0.5,0.4-0.9,0.6c-0.3,0.1-0.7,0.3-1.1,0.3h-1.8v4.3c0,0.1-0.1,0.3-0.1,0.3c-0.1,0.1-0.2,0.1-0.3,0.1h-3.2
					c-0.1,0-0.3-0.1-0.3-0.1c-0.1-0.1-0.1-0.2-0.1-0.3v-4.3h-1.8c-0.4,0-0.8-0.1-1.1-0.3c-0.3-0.1-0.6-0.3-0.9-0.6
					c-0.3-0.3-0.4-0.5-0.6-0.9c-0.1-0.3-0.2-0.7-0.2-1.1v-8.3c0-0.3,0.1-0.4,0.4-0.4h3.1c0.1,0,0.3,0.1,0.3,0.1
					c0.1,0.1,0.1,0.2,0.1,0.3v6.9c0,0.1,0.1,0.3,0.1,0.3c0.1,0.1,0.2,0.1,0.3,0.1h4.3c0.3,0,0.4-0.1,0.4-0.4v-6.9
					c0-0.3,0.1-0.4,0.4-0.4h3.1C162.9,80.1,163,80.2,163.1,80.2z"/>
			</g>
		</g>
	</g>
	<g>
		<rect x="57.7" y="54.1" class="st1" width="5.8" height="1.3"/>
	</g>
</g>
<g>
	<path class="st1" d="M44.7,176.4c0.2,0.1,0.4,0.2,0.5,0.3c0.1,0.1,0.3,0.3,0.3,0.5s0.1,0.4,0.1,0.6v7.7c0,0.1,0,0.1-0.1,0.2
		c-0.1,0.1-0.1,0.1-0.2,0.1h-1.9c-0.1,0-0.1,0-0.2-0.1c0,0-0.1-0.1-0.1-0.2v-6.9h-1.5v6.9c0,0.1,0,0.1-0.1,0.2
		c0,0.1-0.1,0.1-0.2,0.1h-1.7c-0.1,0-0.1,0-0.2-0.1c0,0-0.1-0.1-0.1-0.2v-6.9H38v6.9c0,0.2-0.1,0.3-0.3,0.3h-1.9
		c-0.2,0-0.3-0.1-0.3-0.3v-9c0-0.2,0.1-0.3,0.3-0.3H44C44.3,176.3,44.5,176.4,44.7,176.4z"/>
	<path class="st1" d="M54.1,176.3c0.2,0,0.4,0,0.6,0.1c0.2,0.1,0.4,0.2,0.5,0.3c0.1,0.1,0.3,0.3,0.3,0.5s0.1,0.4,0.1,0.6v6.3
		c0,0.2,0,0.4-0.1,0.6c-0.1,0.2-0.2,0.4-0.3,0.5c-0.1,0.1-0.3,0.3-0.5,0.3c-0.2,0.1-0.4,0.1-0.6,0.1h-4.8c-0.2,0-0.4,0-0.6-0.1
		c-0.2-0.1-0.4-0.2-0.5-0.3c-0.1-0.1-0.3-0.3-0.3-0.5c-0.1-0.2-0.1-0.4-0.1-0.6v-6.3c0-0.2,0-0.4,0.1-0.6c0.1-0.2,0.2-0.4,0.3-0.5
		c0.1-0.1,0.3-0.3,0.5-0.3c0.2-0.1,0.4-0.1,0.6-0.1H54.1z M53.3,178.6h-3.2v4.9h3.2V178.6z"/>
	<path class="st1" d="M64.9,176.4c0.2,0.1,0.4,0.2,0.5,0.3c0.1,0.1,0.3,0.3,0.3,0.5s0.1,0.4,0.1,0.6v7.7c0,0.1,0,0.1-0.1,0.2
		c-0.1,0.1-0.1,0.1-0.2,0.1h-1.9c-0.1,0-0.1,0-0.2-0.1c0,0-0.1-0.1-0.1-0.2v-6.7c0-0.1,0-0.1-0.1-0.2s-0.1-0.1-0.2-0.1h-2.7
		c-0.1,0-0.1,0-0.2,0.1c-0.1,0-0.1,0.1-0.1,0.2v6.7c0,0.2-0.1,0.3-0.3,0.3h-1.9c-0.2,0-0.3-0.1-0.3-0.3v-9c0-0.2,0.1-0.3,0.3-0.3
		h6.1C64.5,176.3,64.7,176.4,64.9,176.4z"/>
	<path class="st1" d="M74.7,178.4c0,0.1,0,0.1-0.1,0.2s-0.1,0.1-0.2,0.1h-1.9c-0.1,0-0.1,0-0.2,0.1c-0.1,0-0.1,0.1-0.1,0.2v6.7
		c0,0.1,0,0.1-0.1,0.2c0,0.1-0.1,0.1-0.2,0.1h-1.9c-0.1,0-0.1,0-0.2-0.1c0,0-0.1-0.1-0.1-0.2v-6.7c0-0.1,0-0.1-0.1-0.2
		c0,0-0.1-0.1-0.2-0.1h-1.9c-0.1,0-0.1,0-0.2-0.1c0,0-0.1-0.1-0.1-0.2v-1.8c0-0.2,0.1-0.3,0.3-0.3h1.9h0.5H72h0.5h1.9
		c0.1,0,0.1,0,0.2,0.1c0,0,0.1,0.1,0.1,0.2V178.4z"/>
	<path class="st1" d="M84.1,176.3c0.1,0,0.1,0,0.2,0.1c0,0,0.1,0.1,0.1,0.2v9c0,0.1,0,0.1-0.1,0.2c-0.1,0.1-0.1,0.1-0.2,0.1h-1.9
		c-0.1,0-0.1,0-0.2-0.1c0,0-0.1-0.1-0.1-0.2v-3.1c0-0.1,0-0.1-0.1-0.2c0,0-0.1-0.1-0.2-0.1H79c-0.1,0-0.1,0-0.2,0.1
		c-0.1,0-0.1,0.1-0.1,0.2v3.1c0,0.2-0.1,0.3-0.3,0.3h-1.9c-0.2,0-0.3-0.1-0.3-0.3v-9c0-0.2,0.1-0.3,0.3-0.3h1.9
		c0.2,0,0.3,0.1,0.3,0.3v3c0,0.2,0.1,0.3,0.3,0.3h2.7c0.1,0,0.1,0,0.2-0.1c0,0,0.1-0.1,0.1-0.2v-3c0-0.1,0-0.1,0.1-0.2
		c0,0,0.1-0.1,0.2-0.1H84.1z"/>
	<path class="st1" d="M92.6,183.5c0.1,0,0.1,0,0.2,0.1c0,0,0.1,0.1,0.1,0.2v1.8c0,0.1,0,0.1-0.1,0.2c0,0.1-0.1,0.1-0.2,0.1h-5.9
		c-0.2,0-0.3-0.1-0.3-0.3v-9c0-0.2,0.1-0.3,0.3-0.3h1.9c0.2,0,0.3,0.1,0.3,0.3v6.7c0,0.1,0,0.1,0.1,0.2c0,0,0.1,0.1,0.2,0.1H92.6z"
		/>
	<path class="st1" d="M101.2,176.4c0,0,0.1,0.1,0.1,0.2v4.8c0,0.2,0,0.4-0.1,0.6c-0.1,0.2-0.2,0.4-0.3,0.5c-0.1,0.1-0.3,0.3-0.5,0.3
		c-0.2,0.1-0.4,0.1-0.6,0.1h-1v2.6c0,0.1,0,0.1-0.1,0.2c0,0.1-0.1,0.1-0.2,0.1h-1.9c-0.1,0-0.1,0-0.2-0.1c0,0-0.1-0.1-0.1-0.2V183
		h-1c-0.2,0-0.4,0-0.6-0.1c-0.2-0.1-0.4-0.2-0.5-0.3c-0.1-0.1-0.3-0.3-0.3-0.5c-0.1-0.2-0.1-0.4-0.1-0.6v-4.8c0-0.2,0.1-0.3,0.3-0.3
		h1.8c0.1,0,0.1,0,0.2,0.1c0,0,0.1,0.1,0.1,0.2v4c0,0.1,0,0.1,0.1,0.2c0,0,0.1,0.1,0.2,0.1h2.5c0.2,0,0.3-0.1,0.3-0.3v-4
		c0-0.2,0.1-0.3,0.3-0.3h1.8C101.1,176.3,101.2,176.3,101.2,176.4z"/>
	<path class="st1" d="M116.8,176.4c0.2,0.1,0.4,0.2,0.5,0.3c0.1,0.1,0.3,0.3,0.3,0.5s0.1,0.4,0.1,0.6v7.7c0,0.1,0,0.1-0.1,0.2
		c-0.1,0.1-0.1,0.1-0.2,0.1h-1.9c-0.1,0-0.1,0-0.2-0.1c0,0-0.1-0.1-0.1-0.2v-6.9h-1.5v6.9c0,0.1,0,0.1-0.1,0.2
		c0,0.1-0.1,0.1-0.2,0.1h-1.7c-0.1,0-0.1,0-0.2-0.1c0,0-0.1-0.1-0.1-0.2v-6.9h-1.5v6.9c0,0.2-0.1,0.3-0.3,0.3H108
		c-0.2,0-0.3-0.1-0.3-0.3v-9c0-0.2,0.1-0.3,0.3-0.3h8.2C116.4,176.3,116.6,176.4,116.8,176.4z"/>
	<path class="st1" d="M122.3,178.6v1.5c0,0,0,0.1,0.1,0.1h3.9c0.1,0,0.1,0,0.2,0.1c0,0,0.1,0.1,0.1,0.2v1.4c0,0.2-0.1,0.3-0.3,0.3
		h-3.9c0,0-0.1,0-0.1,0.1v1.5c0,0,0,0.1,0.1,0.1h4.5c0.1,0,0.1,0,0.2,0.1s0.1,0.1,0.1,0.2v1.7c0,0.1,0,0.1-0.1,0.2
		c0,0.1-0.1,0.1-0.2,0.1h-5.4c-0.2,0-0.4,0-0.6-0.1c-0.2-0.1-0.4-0.2-0.5-0.3s-0.3-0.3-0.3-0.5c-0.1-0.2-0.1-0.4-0.1-0.6v-6.3
		c0-0.2,0-0.4,0.1-0.6c0.1-0.2,0.2-0.4,0.3-0.5c0.1-0.1,0.3-0.3,0.5-0.3c0.2-0.1,0.4-0.1,0.6-0.1h5.4c0.1,0,0.1,0,0.2,0.1
		c0,0,0.1,0.1,0.1,0.2v1.7c0,0.1,0,0.1-0.1,0.2s-0.1,0.1-0.2,0.1L122.3,178.6C122.3,178.5,122.3,178.6,122.3,178.6z"/>
	<path class="st1" d="M131.7,178.6v1.5c0,0,0,0.1,0.1,0.1h3.9c0.1,0,0.1,0,0.2,0.1c0,0,0.1,0.1,0.1,0.2v1.4c0,0.2-0.1,0.3-0.3,0.3
		h-3.9c0,0-0.1,0-0.1,0.1v1.5c0,0,0,0.1,0.1,0.1h4.5c0.1,0,0.1,0,0.2,0.1s0.1,0.1,0.1,0.2v1.7c0,0.1,0,0.1-0.1,0.2
		c0,0.1-0.1,0.1-0.2,0.1h-5.4c-0.2,0-0.4,0-0.6-0.1c-0.2-0.1-0.4-0.2-0.5-0.3s-0.3-0.3-0.3-0.5c-0.1-0.2-0.1-0.4-0.1-0.6v-6.3
		c0-0.2,0-0.4,0.1-0.6c0.1-0.2,0.2-0.4,0.3-0.5c0.1-0.1,0.3-0.3,0.5-0.3c0.2-0.1,0.4-0.1,0.6-0.1h5.4c0.1,0,0.1,0,0.2,0.1
		c0,0,0.1,0.1,0.1,0.2v1.7c0,0.1,0,0.1-0.1,0.2s-0.1,0.1-0.2,0.1L131.7,178.6C131.7,178.5,131.7,178.6,131.7,178.6z"/>
	<path class="st1" d="M145.4,178.4c0,0.1,0,0.1-0.1,0.2s-0.1,0.1-0.2,0.1h-1.9c-0.1,0-0.1,0-0.2,0.1c-0.1,0-0.1,0.1-0.1,0.2v6.7
		c0,0.1,0,0.1-0.1,0.2c0,0.1-0.1,0.1-0.2,0.1h-1.9c-0.1,0-0.1,0-0.2-0.1c0,0-0.1-0.1-0.1-0.2v-6.7c0-0.1,0-0.1-0.1-0.2
		s-0.1-0.1-0.2-0.1h-1.9c-0.1,0-0.1,0-0.2-0.1s-0.1-0.1-0.1-0.2v-1.8c0-0.2,0.1-0.3,0.3-0.3h1.9h0.5h1.9h0.5h1.9
		c0.1,0,0.1,0,0.2,0.1c0,0,0.1,0.1,0.1,0.2V178.4z"/>
	<path class="st1" d="M154.9,176.4c0,0,0.1,0.1,0.1,0.2v7.7c0,0.2,0,0.4-0.1,0.6c-0.1,0.2-0.2,0.4-0.3,0.5c-0.1,0.1-0.3,0.3-0.5,0.3
		c-0.2,0.1-0.4,0.1-0.6,0.1h-4.8c-0.2,0-0.4,0-0.6-0.1c-0.2-0.1-0.4-0.2-0.5-0.3s-0.3-0.3-0.3-0.5c-0.1-0.2-0.1-0.4-0.1-0.6v-7.7
		c0-0.2,0.1-0.3,0.3-0.3h1.9c0.2,0,0.3,0.1,0.3,0.3v6.7c0,0.1,0,0.1,0.1,0.2c0,0,0.1,0.1,0.2,0.1h2.7c0.1,0,0.1,0,0.2-0.1
		c0,0,0.1-0.1,0.1-0.2v-6.7c0-0.1,0-0.1,0.1-0.2c0,0,0.1-0.1,0.2-0.1h1.9C154.8,176.3,154.9,176.3,154.9,176.4z"/>
	<path class="st1" d="M162.8,176.3c0.2,0,0.4,0,0.6,0.1c0.2,0.1,0.4,0.2,0.5,0.3c0.1,0.1,0.3,0.3,0.3,0.5c0.1,0.2,0.1,0.4,0.1,0.6
		v3.6c0,0.2,0,0.4-0.1,0.6c-0.1,0.2-0.2,0.4-0.3,0.5c-0.1,0.1-0.3,0.3-0.5,0.3c-0.2,0.1-0.4,0.1-0.6,0.1h-3c-0.1,0-0.1,0-0.2,0.1
		c0,0-0.1,0.1-0.1,0.2v2.2c0,0.2-0.1,0.3-0.3,0.3h-1.9c-0.2,0-0.3-0.1-0.3-0.3v-9c0-0.2,0.1-0.3,0.3-0.3H162.8z M162.1,180.9v-2.4
		h-2.6v2.4H162.1z"/>
</g>
</svg>
